<svg width="149" height="79" viewBox="0 0 149 79" fill="none" xmlns="http://www.w3.org/2000/svg">
<path d="M70.477 18.6195C57.663 21.0933 47.978 29.3391 44.6702 40.564C44.0444 42.6653 43.955 43.5431 43.955 47.8788C43.955 52.0549 44.0444 53.1455 44.6106 55.0872C46.1304 60.4071 48.8422 64.6098 53.342 68.6529C57.8418 72.6694 62.8482 75.3293 68.391 76.6593C75.9006 78.4414 85.1982 77.5636 92.1714 74.4515C100.277 70.7808 107.191 63.1202 109.545 55.1936C110.26 52.8529 110.349 52.0283 110.349 48.1448C110.379 43.1175 109.962 40.9098 108.263 37.1327C104.27 28.1421 95.7772 21.4391 85.3174 18.9653C81.2646 18.0077 74.4106 17.8481 70.477 18.6195ZM83.4102 23.2744C92.0522 25.1364 99.6512 30.8286 103.138 38.037C104.956 41.8141 105.343 43.5165 105.343 47.8788C105.313 51.0175 105.194 52.1347 104.658 53.8902C100.039 69.0785 81.9798 77.1114 66.156 71.0468C56.2624 67.2431 49.6468 58.8909 48.9614 49.4215C48.0376 36.2549 58.259 25.03 73.159 22.8488C75.2748 22.5562 81.1454 22.7956 83.4102 23.2744Z" fill="#003554"/>
<path d="M74.1722 27.3707C64.8448 28.5145 57.365 34.3131 54.7724 42.4525C53.8188 45.4316 53.8188 50.2993 54.7724 53.3316C57.4246 61.6306 64.7256 67.2165 74.4702 68.3603C83.7678 69.4508 93.6912 64.6098 97.8036 56.9758C100.605 51.7091 100.873 45.3253 98.5188 40.1384C96.3434 35.3239 91.9032 31.1744 86.5988 29.0199C83.291 27.6633 77.778 26.9451 74.1722 27.3707ZM78.97 31.6C80.4898 32.265 81.354 33.5683 81.354 35.2175C81.354 36.9465 80.5792 38.0902 78.9402 38.8616C75.99 40.1916 72.5928 38.3296 72.5928 35.4303C72.5928 33.7811 73.4272 32.5044 74.9768 31.733C76.3774 31.0148 77.5694 30.9616 78.97 31.6ZM69.136 40.697C74.5 41.1226 87.1352 40.8832 90.145 40.298C91.3072 40.0852 92.529 40.83 92.2012 41.5747C91.8734 42.3461 90.8006 42.5589 86.122 42.8515C80.4898 43.1973 80.5792 43.1707 80.162 44.3145C79.3872 46.3626 80.609 53.9966 82.546 59.4495C83.0824 60.9125 83.5294 62.4552 83.5592 62.9074C83.589 63.6256 83.4996 63.7054 82.695 63.7054C81.2944 63.7054 80.5792 62.136 78.4932 54.7148C77.7184 51.8421 76.6754 52.0017 75.99 55.1404C75.4834 57.5077 73.7252 62.535 73.159 63.2266C72.5928 63.9714 71.073 64.0512 70.8048 63.4128C70.6856 63.1734 71.073 61.338 71.6392 59.3431C73.3974 53.1987 74.202 49.5013 74.3808 46.7084C74.6192 42.9047 74.8576 43.0643 68.8082 42.7717C63.772 42.5057 62.5204 42.2397 62.3416 41.4151C62.133 40.4842 62.878 40.1118 64.4872 40.2714C65.3216 40.3778 67.4076 40.564 69.136 40.697ZM66.4838 45.7774C66.6924 46.1232 66.2156 46.8414 64.4872 48.8364C63.2654 50.2727 62.3118 51.6027 62.3416 51.7889C62.4012 51.9485 63.474 53.1987 64.7852 54.5286L67.1096 56.9492L66.4242 57.8535C66.0368 58.3589 65.56 58.7845 65.411 58.7845C65.1428 58.7845 62.5204 56.497 59.0338 53.1455L57.7226 51.8953L59.0338 50.3791C59.749 49.5279 61.388 47.8522 62.6992 46.6286C64.9938 44.4741 65.0534 44.4209 65.6196 44.8731C65.9474 45.1391 66.3348 45.538 66.4838 45.7774ZM94.1978 48.9162C95.509 50.2993 96.552 51.6027 96.552 51.8155C96.552 52.2677 89.698 58.7845 89.1914 58.7845C89.0126 58.7845 88.5656 58.3589 88.208 57.8535C87.463 56.763 87.2246 57.162 90.3834 53.97C91.486 52.8263 92.38 51.8421 92.38 51.7623C92.38 51.6825 91.3668 50.4589 90.145 49.0758C88.9232 47.666 87.91 46.3892 87.91 46.203C87.91 46.0434 88.2676 45.5646 88.7146 45.1657L89.5192 44.4209L90.6814 45.405C91.337 45.9636 92.9164 47.533 94.1978 48.9162Z" fill="#003554"/>
</svg>
