<svg width="243" height="245" viewBox="0 0 243 245" fill="none" xmlns="http://www.w3.org/2000/svg">
<path d="M101.161 18.0896C99.5047 18.3116 99.5047 18.3116 99.5519 19.4624C99.9411 26.8591 100.231 31.5924 100.372 32.2154C100.547 33.0024 100.547 33.0024 104.593 32.7449C110.66 32.3258 112.118 32.1068 112.112 31.6134C112.104 30.9555 111.606 30.93 106.83 31.1983C104.011 31.3389 102.352 31.2977 102.283 31.1013C102.214 30.905 102.1 29.7551 102.051 28.4728L101.924 26.1717L106.066 25.6824C109.91 25.2306 110.934 24.8534 110.461 24.1367C110.291 23.876 105.914 24.1055 103.497 24.5362C101.874 24.7906 101.334 24.0419 101.437 21.6058L101.511 19.5978L103.665 19.3355C104.858 19.1862 106.847 19.025 108.14 18.94C110.031 18.8462 110.46 18.7082 110.554 18.2133C110.647 17.7184 110.315 17.6575 106.732 17.7765C104.576 17.8086 102.089 17.9771 101.161 18.0896Z" fill="#2B468B"/>
<path d="M115.131 17.9808C114.908 18.7408 114.402 26.2496 114.34 29.2773L114.276 32.2392L118.728 32.6008C122.415 32.908 123.211 32.8961 123.439 32.5309C123.602 32.2981 123.731 32.0001 123.73 31.9014C123.728 31.7699 122.099 31.5309 120.073 31.3307C118.079 31.13 116.283 30.7947 116.115 30.5998C115.946 30.4049 115.934 29.3852 116.053 28.2648C116.205 27.1769 116.37 24.3121 116.473 21.9089C116.653 17.6292 116.619 17.5639 115.955 17.5738C115.557 17.5797 115.195 17.7825 115.131 17.9808Z" fill="#2B468B"/>
<path d="M77.8125 19.1933C77.0262 20.0275 76.6406 21.0531 76.9764 21.3771C77.245 21.6363 79.0765 19.4377 79.1024 18.8451C79.0948 18.2202 78.5327 18.393 77.8125 19.1933Z" fill="#2B468B"/>
<path d="M94.373 19.2761C94.05 20.0047 92.6548 28.0201 92.2933 31.0194C92.2034 31.8103 91.978 32.373 91.7781 32.3102C91.5783 32.2473 90.7687 31.1736 89.9571 29.9355C89.1787 28.6969 88.4011 27.524 88.2664 27.3615C88.1312 27.1661 87.388 26.0914 86.6768 24.9176C85.9324 23.7443 85.2231 22.7349 85.1224 22.6377C84.9885 22.541 84.8185 22.2145 84.6818 21.8875C84.5107 21.4624 84.1773 21.3357 83.6141 21.4099C83.1504 21.4826 82.7542 21.653 82.7227 21.785C82.6619 22.2465 91.04 34.3609 91.5401 34.5509C92.4067 34.867 93.5547 33.7643 93.541 32.6459C93.5342 32.0867 93.6556 31.1637 93.8147 30.602C94.0069 30.0399 94.2566 28.753 94.4436 27.7633C94.5975 26.774 94.9387 24.8278 95.2208 23.4747C96.1889 18.5253 96.1889 18.5253 95.3927 18.5372C94.9613 18.5436 94.5668 18.8455 94.373 19.2761Z" fill="#2B468B"/>
<path d="M134.705 20.3222C134.482 21.0823 132.958 26.665 132.641 27.9199C132.45 28.6136 132.166 29.8023 131.977 30.5618C131.787 31.3542 131.468 32.4117 131.275 32.9081C130.923 33.9661 130.957 34.0314 132.021 34.1801C132.785 34.2675 132.883 34.1015 133.389 32.0542C133.705 30.7993 134.056 29.6755 134.153 29.4766C134.414 29.0451 136.172 29.019 137.007 29.4343C138.076 30.0106 141.694 30.1214 142.617 29.6142C144.76 28.4308 145.581 25.0299 144.166 23.2743C143.256 22.1693 142.054 21.562 138.725 20.6574C135.661 19.8145 134.897 19.7601 134.705 20.3222ZM139.674 22.354C140.773 22.6338 142.008 23.2077 142.478 23.6613C143.183 24.3417 143.287 24.6692 143.135 25.823C142.922 27.4382 141.71 28.7064 140.349 28.6937C139.852 28.7011 138.488 28.4582 137.29 28.147L135.126 27.6198L135.144 26.3364C135.189 24.5921 135.822 22.1152 136.316 21.8117C136.547 21.6767 136.944 21.605 137.211 21.6997C137.477 21.7616 138.609 22.0409 139.674 22.354Z" fill="#2B468B"/>
<path d="M77.9257 23.0083C77.4649 23.3113 77.3945 22.9833 80.1194 31.431C80.8096 33.5922 81.4325 35.6885 81.5369 36.0818C81.7473 36.9999 83.3087 37.1412 83.2982 36.2859C83.2914 35.7267 82.3213 32.3853 81.2545 29.2757C80.9107 28.2938 80.2901 26.3948 79.8759 25.085C79.1182 22.8261 78.7815 22.4363 77.9257 23.0083Z" fill="#2B468B"/>
<path d="M68.08 26.543C64.8106 27.8417 63.4748 29.8685 64.3005 32.2579C65.0574 34.451 67.0206 34.8824 71.9537 33.9537C74.6356 33.4533 75.6681 33.767 76.3174 35.3036C76.9316 36.6763 75.856 38.2715 73.7438 39.2241C71.8295 40.075 70.4036 40.162 69.068 39.4909C67.2651 38.5965 66.3174 39.7949 67.9893 40.8229C69.6279 41.8514 74.2301 40.9934 76.2003 39.2863C78.302 37.4785 78.6032 34.9736 76.9888 33.221C76.047 32.1821 75.9806 32.1831 73.2935 32.2559C71.8009 32.311 70.078 32.534 69.45 32.7407C68.5251 33.0835 68.1261 33.0236 67.0584 32.5459C66.0574 32.1002 65.7879 31.7752 65.7111 30.9209C65.6011 30.0672 65.7949 29.6366 66.6151 28.8677C67.6324 27.9314 69.5475 27.1463 70.7751 27.128C71.1405 27.1555 71.7733 27.3435 72.2074 27.5674C73.7773 28.3995 74.5931 27.2687 73.1543 26.3031C72.1505 25.6271 70.0942 25.7234 68.08 26.543Z" fill="#2B468B"/>
<path d="M148.28 31.4053C143.954 35.8124 142.973 36.9785 143.374 37.2357C144.21 37.7497 144.507 37.6137 146.014 36.045C146.8 35.2108 147.655 34.5401 147.854 34.5372C148.086 34.5337 149.553 35.0384 151.12 35.6731C154.321 36.9415 154.558 37.2999 154.258 39.8706C154.074 41.1235 154.177 41.3852 154.779 41.8039C155.18 42.0612 155.614 42.2193 155.778 42.1181C155.91 42.0175 155.999 38.43 155.946 34.088C155.843 25.7329 155.878 25.864 154.253 25.8882C153.921 25.8931 151.263 28.3672 148.28 31.4053ZM154.587 31.5091C154.63 35.0288 154.597 35.095 153.901 35.1054C152.673 35.0907 149.469 33.6249 149.463 33.0986C149.455 32.5065 153.942 27.6036 154.309 27.7626C154.442 27.8264 154.562 29.5026 154.587 31.5091Z" fill="#2B468B"/>
<path d="M162.314 33.8291C157.074 42.2635 156.977 42.4295 157.281 42.9185C157.451 43.1792 157.752 43.4379 157.952 43.5007C158.319 43.6269 159.886 41.498 160.825 39.5759C161.117 39.0451 161.476 38.6121 161.675 38.6091C161.841 38.6066 162.91 39.183 164.014 39.8904L165.988 41.21L166.031 44.7296C166.075 48.3151 166.317 49.0682 167.345 49.0529C167.743 49.047 167.803 48.5197 167.573 45.9898C167.226 42.047 167.323 41.8481 169.117 42.0189C170.413 42.1642 170.644 42.062 171.891 40.8591C173.137 39.6562 173.267 39.3911 173.248 37.9108C173.234 36.7267 173.027 36.0717 172.455 35.4551C171.748 34.6431 168.401 32.2582 168.003 32.2641C167.903 32.2656 167.167 31.8159 166.365 31.3015C165.562 30.7541 164.826 30.3373 164.694 30.3393C164.594 30.3408 163.518 31.903 162.314 33.8291ZM168.457 34.1327C171.298 35.8342 172.075 36.9413 171.53 38.5286C171.017 39.9838 169.93 40.5921 168.135 40.3556C167.337 40.2358 166.571 40.0169 166.469 39.8539C166.368 39.7238 165.465 39.145 164.463 38.6006C163.461 38.0562 162.623 37.4106 162.62 37.1804C162.618 36.9501 163.071 36.0551 163.592 35.192C164.145 34.3283 164.566 33.4667 164.564 33.3022C164.561 33.0391 165.088 32.7022 165.684 32.6605C165.817 32.6256 167.086 33.2977 168.457 34.1327Z" fill="#2B468B"/>
<path d="M54.3932 33.4907C53.569 33.9306 52.4186 34.836 51.863 35.5352C50.9793 36.5353 50.7862 37.0317 50.8015 38.2816C50.8394 41.3737 53.6393 42.3849 57.8013 40.8097C60.3116 39.8512 62.5681 39.8506 63.2434 40.7947C64.5255 42.5193 63.3888 44.5431 60.3868 46.0024C58.638 46.818 58.1739 46.8578 56.6413 46.3541C55.7082 46.039 55.4428 46.0429 55.2154 46.4411C54.2725 48.0343 58.362 48.6645 60.901 47.3437C65.4843 44.9397 66.7923 40.6433 63.5498 38.7174C62.3465 38.0115 61.517 38.0238 58.9384 38.8188C54.6073 40.1333 53.2465 40.1206 52.4669 38.7833C51.7545 37.5108 52.5007 36.1179 54.5433 34.9032C56.3556 33.8564 57.349 33.6771 58.4511 34.2529C59.3861 34.7325 60.3706 33.8296 59.6978 33.0829C59.0242 32.2704 56.1732 32.5102 54.3932 33.4907Z" fill="#2B468B"/>
<path d="M97.5437 37.0611C97.4785 37.1607 96.5855 37.4043 95.5922 37.5835C88.2758 39.0082 76.7714 42.6006 72.4512 44.8033C70.0109 46.0568 63.7816 49.5381 61.5751 50.9197C60.9491 51.2909 60.1912 51.7299 59.9274 51.8654C59.3003 52.1379 53.0215 57.0017 50.953 58.809C48.1949 61.2188 39.805 69.8315 38.1059 71.9953C37.2242 73.1599 36.3085 74.2592 36.1454 74.4919C35.9487 74.6922 35.5898 75.1911 35.3288 75.5568C32.459 79.6791 31.1244 81.8045 30.3466 83.3294C29.8279 84.3241 29.2435 85.3856 29.0145 85.6522C28.4913 86.2851 24.5509 95.1279 23.6537 97.7403C23.2689 98.8317 22.6918 100.485 22.3713 101.411C21.4081 104.058 19.4808 111.982 18.9898 115.247C17.669 123.919 17.8837 138.754 19.3843 147.483C20.0605 151.223 21.2753 155.581 23.8595 163.373C25.4797 168.317 31.2849 178.989 34.5543 183.119C34.7222 183.281 35.7021 184.714 36.7832 186.277C38.9788 189.435 39.1807 189.663 44.323 194.982C48.0538 198.842 51.4083 201.786 54.9582 204.431C56.0636 205.27 57.1685 206.076 57.336 206.205C57.5371 206.367 58.4074 206.979 59.3441 207.59C60.2475 208.202 61.2182 208.878 61.4532 209.105C61.6883 209.332 63.1922 210.198 64.7949 210.996C66.3979 211.828 68.1021 212.79 68.637 213.111C70.3436 214.27 75.7151 216.625 79.0471 217.727C80.8792 218.292 82.6789 218.923 83.0458 219.082C84.7472 219.813 94.0322 221.978 96.8569 222.298C97.488 222.355 98.7852 222.599 99.6835 222.783C101.513 223.15 126.826 222.544 127.517 222.106C127.715 221.972 128.94 221.756 130.199 221.606C133.878 221.222 136.558 220.557 142.937 218.456C145.217 217.698 147.199 216.945 147.363 216.778C147.56 216.61 147.956 216.473 148.288 216.468C148.62 216.463 149.149 216.324 149.479 216.154C149.776 216.018 151.293 215.272 152.844 214.558C154.395 213.811 156.308 212.829 157.131 212.323C157.954 211.817 159.602 210.871 160.822 210.195C168.305 206.169 177.107 198.702 183.911 190.606C185.187 189.106 186.56 187.474 187.019 186.974C187.935 185.94 188.393 185.341 191.424 180.822C192.596 179.028 194.352 176.106 195.326 174.315C196.267 172.558 197.208 170.8 197.403 170.468C197.955 169.473 200.664 163.083 200.66 162.787C200.658 162.622 201.044 161.564 201.494 160.373C201.977 159.214 202.554 157.495 202.808 156.603C203.951 152.407 204.803 148.743 204.794 148.019C204.788 147.559 204.913 146.932 205.075 146.6C205.237 146.302 205.551 144.784 205.731 143.235C206.152 139.675 205.633 113.56 205.073 111.167C204.863 110.249 204.546 108.773 204.336 107.888C204.126 106.97 203.814 105.889 203.642 105.431C203.471 104.973 203.16 103.957 202.917 103.139C202.329 101.173 201.227 97.8997 200.852 97.0828C200.682 96.7234 200.133 95.251 199.617 93.8111C198.758 91.3563 196.444 86.686 194.615 83.6864C194.175 82.9691 193.328 81.5012 192.717 80.4246C192.107 79.3479 191.498 78.4029 191.364 78.3062C191.23 78.2095 190.757 77.5585 190.317 76.8412C189.877 76.1239 189.404 75.473 189.27 75.3762C189.17 75.279 188.462 74.4013 187.753 73.3919C184.074 68.347 176.308 60.1715 173.297 58.1764C172.896 57.9192 170.818 56.2722 168.706 54.5269C165.757 52.169 163.449 50.657 159.374 48.4803C152.092 44.5747 144.484 41.1673 143.057 41.1885C142.725 41.1934 142.358 41.0344 142.257 40.8714C142.155 40.6755 141.755 40.5499 141.39 40.5553C141.058 40.5602 140.493 40.437 140.159 40.2775C138.723 39.5421 131.4 37.7426 127.277 37.0801C125.283 36.7807 97.8718 36.7601 97.5437 37.0611ZM106.634 45.0194C106.939 45.5084 107.372 67.3805 107.107 67.3845C107.007 67.3859 105.401 66.3241 103.494 65.0035C99.7788 62.4267 97.5389 61.0781 93.4321 59.0335L90.8613 57.7557L90.0415 58.5575C88.5338 60.0933 87.9249 64.5767 88.0988 73.3584C88.1406 76.7794 88.1097 79.6751 87.9782 79.7757C87.6504 80.1096 77.1012 80.3979 72.5521 80.1693C67.6376 79.9133 67.6376 79.9133 69.2203 76.3695C70.6739 73.1237 74.8694 66.1524 77.0262 63.4226C78.627 61.359 81.3426 58.1932 82.4242 57.0914C84.2597 55.2218 88.4635 51.639 89.8138 50.7964C90.4397 50.4252 90.9986 49.9893 91.0965 49.8562C91.3571 49.4575 97.2594 46.376 99.6694 45.3532C101.386 44.6368 102.28 44.459 104.073 44.4982C105.633 44.5408 106.431 44.6935 106.634 45.0194ZM120.235 44.6201C122.2 45.1831 127.441 47.7044 130.55 49.5664C135.999 52.8742 142.717 59.4531 146.908 65.6748C150.997 71.7005 153.473 76.1053 153.488 77.3552C153.506 78.8026 152.578 78.8822 135.192 79.1404L118.968 79.3813L117.791 78.1486C117.12 77.5006 116.211 76.4284 115.771 75.7769L114.927 74.605L114.941 62.1357C114.938 48.3506 115.071 45.6509 115.823 44.7843C116.445 44.0841 118.17 44.0256 120.235 44.6201ZM149.823 51.7477C151.227 52.5164 153.063 53.4433 153.93 53.7923C154.797 54.1413 156.167 54.8777 157.003 55.4245C157.839 55.9714 158.608 56.4206 158.741 56.4186C158.874 56.4167 159.743 56.963 160.68 57.64C161.618 58.3499 162.756 59.1226 163.191 59.4122C166.803 61.7274 176.069 70.4728 179.373 74.6678C181.193 76.9767 181.366 77.5992 180.411 78.1398C179.488 78.647 164.955 78.7971 164.02 78.3174C162.952 77.8069 161.937 76.2757 157.699 68.9361C156.852 67.4682 155.16 64.7955 153.91 62.9717C150.768 58.4123 150.633 58.2169 149.252 56.5596C146.928 53.7647 145.205 51.2569 145.197 50.5991C145.19 50.0399 145.355 49.9716 146.253 50.1557C146.818 50.246 148.42 50.9789 149.823 51.7477ZM75.2041 52.8229C75.2097 53.2834 72.5706 57.2706 69.3062 61.6948C67.2502 64.5219 63.2853 71.3581 61.1495 75.7985C60.7933 76.5276 60.1427 77.59 59.7186 78.1885C59.2941 78.7541 58.9368 79.3845 58.9388 79.549C58.9408 79.7135 58.5467 80.0483 58.0522 80.3189C57.3931 80.6906 55.6026 80.8158 50.1281 80.8971C40.639 81.0381 40.5047 80.9085 44.5905 75.8141C46.5514 73.3504 53.6319 66.2046 56.6861 63.5931C60.7256 60.1444 64.5433 57.5544 70.4765 54.2749C74.0364 52.3139 75.1932 51.9348 75.2041 52.8229ZM186.412 85.8151C187.012 86.1023 187.817 86.7812 188.156 87.3684C189.813 89.8771 192.471 95.5622 193.71 99.1628C194.466 101.323 195.188 103.385 195.292 103.745C197.077 108.555 197.85 112.064 198.486 117.944C198.973 122.509 198.748 123.072 196.298 123.536C195.403 123.681 190.461 123.886 185.252 123.931C174.833 124.052 173.371 123.877 172.888 122.338C172.298 120.274 171.9 117.582 171.685 113.538C171.434 109.265 171.181 107.591 170.414 104.608C169.822 102.314 169.471 100.74 168.866 97.3933C168.546 95.6872 167.749 92.9026 167.098 91.2014C166.446 89.5003 165.896 87.9293 165.893 87.699C165.882 86.8109 167.734 86.2241 170.653 86.1807C172.213 86.1576 173.571 85.9729 173.669 85.807C173.799 85.6076 176.153 85.4411 179.603 85.3898C184.215 85.3213 185.544 85.4003 186.412 85.8151ZM54.3677 88.3683C55.1999 88.5862 55.9343 88.9372 56.0035 89.1665C56.0726 89.3958 55.8848 90.3198 55.5979 91.2781C53.5522 97.6582 51.5708 109.301 50.8293 119.215C50.6017 122.311 50.1314 124.555 49.5782 125.452C49.0902 126.249 46.5711 126.484 36.9165 126.66L27.4274 126.801L26.6878 126.022C25.9822 125.309 25.9462 125.079 26.0253 120.702C26.0939 118.168 26.2563 115.172 26.4409 113.984C26.7494 112.072 30.9607 98.2569 31.5466 97.327C31.6769 97.1277 31.9343 96.4658 32.1266 95.9037C32.6393 94.4156 35.0462 90.4318 35.9316 89.5633C36.3253 89.1955 37.1823 88.7222 37.8107 88.5484C39.6291 87.995 52.6027 87.8681 54.3677 88.3683ZM88.7788 88.2521C88.9171 88.7106 88.9332 90.0264 88.8474 91.1462C88.702 92.8263 88.1877 94.1828 85.8903 98.9875C82.3304 106.377 81.2126 109.947 81.0339 114.325C80.854 118.605 81.4434 120.669 83.5315 123.171C84.373 124.146 85.0475 125.024 85.0487 125.123C85.0527 125.452 60.2662 125.655 59.2332 125.309C58.0672 124.931 57.8637 124.572 57.9443 123.025C58.3019 116.999 58.7668 111.596 59.0266 111.132C59.1884 110.8 59.3099 109.877 59.3002 109.088C59.2902 108.266 59.4468 107.506 59.6115 107.405C59.8094 107.304 59.9348 106.71 59.9272 106.085C59.9195 105.46 60.0422 104.635 60.2028 104.205C60.3635 103.775 60.6444 102.323 60.827 100.972C61.4682 96.422 63.8025 89.2152 64.8574 88.6402C65.879 88.0657 69.7581 87.7778 79.5123 87.6001L88.5692 87.3998L88.7788 88.2521ZM157.622 87.0323C158.12 87.0249 160.009 92.2608 161.024 96.5228C161.164 97.1458 161.372 97.8994 161.508 98.1606C161.611 98.4222 161.891 99.6025 162.071 100.784C162.285 101.965 162.604 103.639 162.814 104.557C163.308 106.918 163.817 110.562 164.233 114.735C164.423 116.706 164.681 118.84 164.821 119.431C165.068 120.578 164.468 123.088 163.843 123.525C163.679 123.659 163.182 123.798 162.784 123.804C162.253 123.812 162.052 123.584 161.944 122.895C161.797 121.778 160.599 121.533 159.948 122.497C159.687 122.863 158.897 123.434 158.171 123.773C157.049 124.284 155.491 124.405 146.866 124.632L136.814 124.913L136.506 124.128C136.335 123.736 136.017 122.128 135.766 120.586C134.354 111 130.87 100.195 126.586 91.7702C125.43 89.5172 124.511 87.6227 124.576 87.523C124.641 87.4234 151.847 86.9864 157.622 87.0323ZM160.03 123.845C160.032 124.009 159.869 124.176 159.67 124.179C159.504 124.181 159.435 124.018 159.533 123.852C159.63 123.653 159.794 123.519 159.894 123.518C159.96 123.517 160.028 123.647 160.03 123.845ZM198.352 131.402C198.855 131.822 198.962 132.445 198.994 135.077C199.012 139.222 197.797 148.452 197.109 149.153C196.945 149.287 196.851 149.749 196.856 150.177C196.861 150.605 196.736 151.199 196.574 151.53C196.411 151.829 196.124 152.754 195.902 153.58C194.223 160.119 192.42 164.62 189.945 168.473C187.567 172.128 187.898 172.024 177.05 172.317L167.762 172.586L167.64 170.779C167.519 169.004 167.829 167.255 168.668 165.335C169.088 164.407 169.778 161.107 170.426 157.084C170.547 156.161 170.828 154.676 170.983 153.785C171.572 150.454 171.934 147.422 172.214 143.239C172.889 133.326 173.173 132.072 174.828 131.718C175.225 131.614 175.853 131.473 176.218 131.401C176.581 131.297 181.557 131.158 187.297 131.039C196.586 130.869 197.782 130.917 198.352 131.402ZM47.1589 133.844C47.5251 133.938 48.2238 134.092 48.6895 134.184C49.1884 134.275 49.6905 134.629 49.7937 134.924C50.1016 135.676 50.7111 139.385 51.0839 142.735C52.1988 152.49 54.4648 164.103 56.5683 170.586C57.8439 174.482 57.7447 174.516 48.689 174.815C40.1305 175.074 38.9668 174.894 37.1522 173.045C36.0432 171.91 32.7868 166.135 32.776 165.247C32.7735 165.05 32.6388 164.887 32.4397 164.89C32.2738 164.893 32.1051 164.665 32.1019 164.402C32.0987 164.139 31.9599 163.647 31.79 163.321C31.4162 162.603 30.4882 159.984 29.8316 157.856C29.5549 156.939 29.1755 155.76 29.0031 155.236C26.9979 148.653 25.8269 142.452 25.8082 138.208C25.8314 134.688 25.7987 134.721 30.2378 134.096C32.6558 133.731 45.994 133.566 47.1589 133.844ZM151.705 132.259C152.141 132.713 150.263 139.222 148.872 142.105L147.512 144.922L145.985 144.846C144.092 144.742 142.574 145.456 141.894 146.815C141.408 147.743 141.078 147.913 138.101 148.681L137.274 148.89L137.275 140.896C137.288 136.487 137.308 132.736 137.373 132.571C137.5 132.174 151.302 131.903 151.705 132.259ZM156.78 132.085C157.178 132.112 157.146 132.211 156.721 132.678C156.459 133.011 155.876 134.204 155.426 135.329C154.492 137.712 151.821 141.798 149.594 144.2C147.793 146.201 147.555 145.711 148.982 142.992C150.15 140.803 151.752 136.108 152.058 133.997C152.147 133.174 152.436 132.38 152.667 132.245C153.029 132.042 154.721 131.984 156.78 132.085ZM164.384 132.531C165.087 132.981 165.123 133.211 165.172 137.257C165.202 139.724 165.092 141.568 164.895 141.703C164.73 141.804 164.574 142.596 164.584 143.451C164.603 144.997 163.942 150.6 163.412 153.404C163.256 154.229 162.977 155.845 162.759 157.033C162.575 158.22 162.293 159.606 162.134 160.168C161.975 160.697 161.532 162.48 161.187 164.13C160.463 167.332 158.27 172.53 157.574 172.606C155.95 172.762 121.742 173.237 121.641 173.107C121.405 172.748 122.196 169.644 122.906 167.988C124.003 165.406 125.117 164.271 127.167 163.681C130.011 162.816 133.693 160.031 138.118 155.491C141.919 151.585 142.182 151.384 142.752 151.869C145.201 154.004 149.426 152.197 149.387 149.007C149.379 148.283 149.201 147.364 148.997 146.907C148.656 146.188 148.818 145.89 150.781 143.557C153.07 140.793 155.706 136.542 156.02 135.123C156.302 133.77 157.547 132.403 158.804 132.088C160.326 131.736 163.415 131.986 164.384 132.531ZM65.5779 133.966C65.5787 134.032 64.6622 135.065 63.5146 136.201C62.2695 137.502 60.9969 139.265 60.1859 140.79L58.9221 143.277L58.6426 142.129C58.5023 141.506 58.3134 139.634 58.2601 137.99C58.0779 133.946 58.1439 133.912 62.2912 133.85C64.116 133.823 65.5767 133.867 65.5779 133.966ZM98.5288 133.838C99.8979 134.542 105.719 138.338 106.725 139.211C107.396 139.793 107.739 140.742 107.308 140.749C107.208 140.75 106.271 140.073 105.199 139.234C104.16 138.394 101.984 136.912 100.38 135.949C98.8079 134.953 97.2032 133.99 96.8686 133.764C96.3001 133.411 96.2997 133.378 96.8638 133.37C97.1952 133.332 97.9279 133.551 98.5288 133.838ZM122.848 149.664C126.059 151.788 128.737 153.656 128.806 153.885C128.978 154.343 127.551 154.365 125.19 153.972C122.962 153.577 117.689 151.155 116.28 149.893C115.307 149.019 115.204 148.758 115.182 146.915L115.157 144.876L116.092 145.356C116.593 145.611 119.636 147.573 122.848 149.664ZM123.971 160.142C123.973 160.307 123.254 161.173 122.403 162.107C120.176 164.542 118.411 166.772 116.749 169.231L115.315 171.391L115.179 168.432L115.044 165.473L116.455 164.169C117.734 162.999 120.169 161.252 121.817 160.339C122.575 159.9 123.967 159.781 123.971 160.142ZM107.005 172.995C106.649 173.724 106.254 173.993 105.624 174.003L104.761 174.015L105.711 173.014C106.235 172.447 106.827 172.011 107.06 172.007C107.358 172.003 107.362 172.266 107.005 172.995ZM106.444 181.327C106.812 181.585 107.187 182.435 107.365 183.386C107.971 186.832 107.804 213.812 107.148 214.48C106.689 214.947 103.903 215.022 101.84 214.592C94.6207 213.12 83.4951 204.27 76.2709 194.244C75.4609 193.138 74.8848 192.159 74.95 192.06C75.0487 191.992 76.3694 191.446 77.9224 190.897C81.7546 189.491 85.7766 187.326 92.7242 182.88C94.2715 181.87 94.8008 181.73 96.8574 181.667C98.1178 181.615 99.5429 181.462 100.006 181.324C101.427 180.842 105.774 180.876 106.444 181.327ZM152.762 180.738C154.159 181.013 154.26 181.078 154.239 182.065C154.136 184.534 148.64 193.696 144.189 198.763C138.887 204.829 133.96 208.982 128.785 211.79C125.29 213.684 120.332 215.238 117.611 215.279C116.251 215.299 116.017 215.204 115.876 214.548C115.56 213.072 115.23 202.384 115.368 197.381C115.478 192.84 115.571 192.279 116.038 192.469C117.438 193.041 118.3 192.962 118.788 192.165C119.309 191.368 119.838 188.465 120.154 184.479C120.271 183.194 120.454 181.843 120.615 181.413L120.904 180.685L136.068 180.558C144.43 180.5 151.931 180.586 152.762 180.738ZM181.128 180.185C181.595 180.376 181.965 180.765 181.968 180.995C181.993 183.035 172.356 192.752 163.776 199.393C160.883 201.64 159.632 202.449 154.064 205.723C147.902 209.302 147.242 209.607 146.838 209.12C146.366 208.568 146.724 207.937 149.891 203.745C152.112 200.817 151.982 201.016 155.304 195.933C158.496 191.016 159.829 188.726 161.252 185.678C163.805 180.113 163.838 180.113 173.228 179.94C177.905 179.838 180.561 179.93 181.128 180.185ZM56.6051 184.436C56.5325 186.641 56.9803 187.984 58.0566 189.152C58.9976 190.125 62.1022 191.625 64.7997 192.408C66.5314 192.908 66.9996 193.198 67.4417 194.079C68.7323 196.495 73.423 202.873 76.1488 205.959C77.3601 207.322 77.4053 208.309 76.2773 208.325C74.552 208.351 65.6309 203.384 60.7409 199.706C55.817 195.963 45.9453 186.535 44.4896 184.188C44.3205 183.928 44.448 183.498 44.8081 183.098C45.3318 182.498 45.7627 182.459 51.0389 182.446L56.6805 182.461L56.6051 184.436Z" fill="#2B468B"/>
<path d="M44.3236 40.4177C43.7976 40.8203 43.3052 41.2553 43.2068 41.3554C43.1089 41.4885 41.6631 42.6615 39.9871 44.0024C38.1141 45.5107 36.9997 46.6458 37.1024 46.9075C37.2048 47.1363 39.2941 49.7373 41.7195 52.6951L46.1991 58.09L47.3495 57.1846C48.0071 56.6814 48.5982 56.1791 48.6966 56.0789C48.7949 55.9788 50.2407 54.8058 51.9163 53.432C54.775 51.1194 55.363 50.354 54.5943 49.9048C54.4272 49.8086 52.716 50.9855 50.8105 52.5601C48.9055 54.1676 47.1291 55.4442 46.8969 55.4477C46.2996 55.4565 43.6743 52.4358 43.6662 51.7779C43.663 51.5148 44.1526 50.8495 44.777 50.3467C46.6812 48.6734 48.6522 47.0321 49.1135 46.762C49.6735 46.4247 49.725 45.2066 49.1941 45.2145C48.9619 45.218 47.4162 46.3595 45.7406 47.7333C44.0649 49.1071 42.5524 50.2482 42.4197 50.2501C42.0216 50.256 39.3298 47.2363 39.291 46.7763C39.287 46.4474 41.5853 44.4392 46.1529 40.7524C46.2516 40.6851 46.0825 40.4244 45.8135 40.1323C45.3437 39.7116 45.1782 39.747 44.3236 40.4177Z" fill="#2B468B"/>
<path d="M177.315 44.7924C174.677 46.1805 171.611 47.8052 170.49 48.3812C168.742 49.3283 168.48 49.5625 168.785 50.0844C169.226 50.8674 169.59 50.8291 171.7 49.6463C173.809 48.4963 173.909 48.5278 177.229 51.3737L179.242 53.1204L178.537 55.1706C177.833 57.2867 177.874 57.9441 178.64 58.1959C179.207 58.4178 179.4 57.9214 181.86 50.1534L184.001 43.41L183.264 42.8287C182.862 42.5057 182.427 42.249 182.295 42.2509C182.196 42.2853 179.953 43.4043 177.315 44.7924ZM181.959 44.6247C181.965 45.1181 180.78 48.656 180.07 50.2458L179.554 51.5036L177.544 49.9214C176.438 49.0495 175.531 48.1418 175.528 47.9444C175.525 47.7142 176.677 46.9075 178.061 46.1302C179.446 45.3529 180.697 44.6106 180.829 44.477C181.222 44.1093 181.953 44.1971 181.959 44.6247Z" fill="#2B468B"/>
<path d="M31.3944 52.322C28.5304 54.2069 27.2946 56.2651 27.3611 58.9948C27.4229 61.3298 28.0338 62.4393 30.3149 64.4452C33.703 67.4217 36.8897 67.506 40.0079 64.6961C42.076 62.8559 43.0348 59.8477 42.2767 57.556C42.0703 56.9668 41.9036 56.9035 41.376 57.1746C40.8488 57.4785 40.786 57.7755 40.9644 58.7928C41.2855 60.6304 40.6417 62.2521 39.0656 63.6244C37.8837 64.6618 37.5203 64.7988 35.8614 64.8235C34.302 64.8466 33.7028 64.691 32.3979 63.8221C28.5186 61.3793 27.7744 57.5082 30.6267 54.6693C31.5776 53.734 32.0725 53.4963 33.6634 53.3411C35.4199 53.1505 35.5518 53.0827 35.5425 52.3262C35.5337 51.6025 35.3666 51.5063 34.2041 51.4249C33.208 51.3739 32.5136 51.5816 31.3944 52.322Z" fill="#2B468B"/>
<path d="M194.113 53.4914C193.387 53.7654 193.661 54.4522 195.041 56.0767C195.782 56.954 196.389 57.8004 196.392 57.9978C196.394 58.1622 195.311 59.1982 193.997 60.2376C192.716 61.3095 190.481 63.1192 189.068 64.2259C187.458 65.5329 186.54 66.5007 186.611 66.8286C186.787 67.6814 187.98 67.565 189.097 66.5943C192.018 63.9518 197.31 59.7936 197.675 59.7882C197.874 59.7852 198.646 60.4976 199.42 61.4073C200.766 62.9336 201.501 63.3504 201.892 62.7524C201.99 62.5864 200.404 60.4386 198.383 57.9682C194.104 52.7677 194.609 53.3195 194.113 53.4914Z" fill="#2B468B"/>
<path d="M19.1981 67.1765C18.9039 67.5428 18.6441 68.0072 18.6461 68.1717C18.6497 68.4678 25.3087 78.4034 25.778 78.7912C25.8788 78.8884 26.2506 79.4422 26.5892 79.9965C27.3004 81.1703 27.9001 81.3588 28.2218 80.5315C28.4144 80.0023 27.0547 77.3575 26.3863 76.9727C25.7511 76.5873 26.04 75.7934 27.8642 73.0027C29.8842 69.9459 29.6532 70.048 32.9148 70.8221C33.6799 70.9753 34.2108 70.9674 34.5061 70.6998C35.2288 70.0968 34.9562 69.5087 33.8584 69.2947C33.26 69.2049 32.1623 68.9909 31.4304 68.8373C30.6984 68.6836 28.3031 68.1928 26.1077 67.7648C23.9123 67.3368 21.5837 66.8779 20.9181 66.7233C19.92 66.5078 19.6553 66.5775 19.1981 67.1765ZM24.7958 69.0345C27.5245 69.652 28.025 69.8748 27.8328 70.437C27.4783 71.2977 25.2944 74.5214 25.0289 74.5253C24.6972 74.5303 20.6485 69.0961 20.6429 68.6356C20.638 68.2408 21.6018 68.3581 24.7958 69.0345Z" fill="#2B468B"/>
<path d="M199.996 67.7816C196.227 68.9233 193.574 71.7592 193.609 74.6539C193.639 77.0881 193.949 78.0704 195.297 79.7612C197.051 82.0053 198.72 82.8688 201.008 82.6703C205.716 82.3372 209.745 78.0333 209.001 74.1621C208.434 71.2424 206.178 68.5781 203.512 67.6965C202.113 67.2238 201.781 67.2287 199.996 67.7816ZM204.868 70.0123C206.273 70.9455 207.529 73.2628 207.55 74.9404C207.574 76.8811 205.091 80.0764 203.531 80.0995C203.233 80.104 202.936 80.24 202.838 80.4059C202.545 80.8709 200.192 81.1361 198.961 80.8254C197.562 80.4514 196.22 79.1882 195.502 77.521C194.786 75.9195 194.806 74.8664 195.551 73.3749C197.3 69.8615 202.025 68.1792 204.868 70.0123Z" fill="#2B468B"/>
<path d="M10.3159 84.3508C9.56286 85.1845 8.2663 87.7042 7.30153 90.2189C6.81915 91.4762 6.7916 91.9373 7.09303 92.1631C7.59554 92.5504 19.7661 97.3047 20.2306 97.2978C20.3965 97.2953 20.8845 96.4985 21.271 95.5386C21.6911 94.6112 22.3042 93.1874 22.6267 92.4259C23.466 90.5052 23.4014 87.94 22.5239 86.7357C21.2753 85.0435 18.617 84.7539 17.3404 86.1876C16.6201 86.9879 16.3215 86.9923 16.046 86.1739C15.9088 85.8141 15.4351 85.0644 14.9641 84.545C14.2569 83.7001 13.8903 83.5739 12.5632 83.5936C11.3688 83.6114 10.8399 83.7837 10.3159 84.3508ZM13.8833 85.7125C14.7516 86.1602 14.8871 86.3885 14.902 87.6056C14.9181 88.9214 13.6968 92.1637 13.0712 92.5678C12.9397 92.6685 12.2074 92.4819 11.4734 92.1638C10.7395 91.8457 9.87279 91.5296 9.57257 91.4025C8.67353 91.1526 8.82413 89.9002 9.95761 87.6132C11.1562 85.2266 12.0468 84.7857 13.8833 85.7125ZM21.1101 87.8095C21.9492 88.5866 22.0968 89.8018 21.5505 91.2575C20.2947 94.4016 19.937 94.9991 19.3398 95.008C18.444 95.0213 14.6415 93.4328 14.6367 93.0381C14.6266 92.2157 16.896 87.8392 17.5867 87.3354C18.5736 86.6299 20.0363 86.8385 21.1101 87.8095Z" fill="#2B468B"/>
<path d="M211.291 82.3204C210.465 82.6287 208.616 83.38 207.162 83.928C199.764 86.8014 199.731 86.8348 199.738 87.4269C199.742 87.7559 200.36 89.3917 201.11 91.0585C202.646 94.4902 203.957 95.8854 206.321 96.5083C208.518 97.0679 212.122 96.0273 214.157 94.1876C214.912 93.5184 216.042 90.9683 216.03 89.9815C216.008 88.1394 213.843 82.085 213.143 81.8322C212.943 81.7694 212.116 81.9791 211.291 82.3204ZM212.875 84.3037C213.65 85.2792 214.42 88.5907 214.239 90.0739C213.908 92.8095 211.144 94.7916 207.594 94.8444C206.002 94.868 205.668 94.7414 204.495 93.7389C203.153 92.5744 201.589 89.5379 201.809 88.5148C201.871 88.1519 202.926 87.5441 204.709 86.8267C206.261 86.2115 208.473 85.3232 209.662 84.812C212.139 83.8212 212.437 83.7838 212.875 84.3037Z" fill="#2B468B"/>
<path d="M5.2267 96.9283C4.96973 97.623 3.10476 105.218 2.95014 106.141C2.85664 106.636 2.96221 107.128 3.16249 107.224C3.53028 107.449 14.7473 110.21 16.2432 110.418C17.2409 110.601 17.1114 110.866 18.5029 105.252C19.8632 99.8035 19.9231 99.2763 19.1268 99.2881C18.5959 99.296 18.4013 99.6608 18.088 101.179C17.8686 102.235 17.5517 103.457 17.4247 103.919C17.2644 104.382 16.9799 105.538 16.7597 106.528C16.506 107.486 16.1515 108.347 15.9536 108.449C15.7221 108.518 14.6248 108.337 13.4596 108.025C10.8624 107.307 10.8276 107.176 11.9013 102.718C12.8823 98.8215 12.8811 98.7228 12.118 98.7342C11.6867 98.7406 11.4265 99.1721 11.1416 100.295C10.9202 101.187 10.5709 102.475 10.3807 103.201C9.71577 105.81 9.42763 106.67 9.23016 106.805C8.86802 107.04 5.40536 106.105 4.9688 105.684C4.63299 105.36 4.75484 104.469 5.48333 101.629C6.52711 97.4354 6.5822 96.5134 5.88545 96.5237C5.58684 96.5282 5.29065 96.73 5.2267 96.9283Z" fill="#2B468B"/>
<path d="M212.647 98.2566C210.629 98.7472 209.209 99.3276 208.288 100.032C204.77 102.683 205.316 109.354 209.264 111.927C210.334 112.635 210.866 112.726 213.321 112.69C216.374 112.611 217.629 112.165 219.367 110.494C221.139 108.823 221.699 105.755 220.8 102.84C220.318 101.367 218.768 99.4488 217.499 98.8096C216.497 98.331 213.706 98.0106 212.647 98.2566ZM217.088 100.527C220.327 102.123 220.757 107.414 217.863 109.595C214.739 111.912 210.223 111.65 208.398 109.012C206.101 105.691 207.481 101.821 211.512 100.379C213.593 99.6243 215.286 99.665 217.088 100.527Z" fill="#2B468B"/>
<path d="M1.59056 111.689C1.5978 112.281 1.76893 112.706 2.03436 112.702C2.26661 112.699 4.09908 113.297 6.09946 114.056C9.23275 115.194 10.699 115.699 13.1959 116.353C13.9287 116.572 13.4726 117.27 12.4137 117.516C11.8841 117.622 10.4278 117.94 9.13626 118.157C7.87829 118.406 6.15662 118.727 5.32916 118.904C4.50211 119.114 3.24414 119.363 2.51622 119.538C1.39056 119.752 1.16073 119.953 1.10363 120.711C1.04492 121.337 1.18166 121.664 1.61459 121.789C1.94758 121.883 2.51444 122.104 2.88142 122.263C3.68173 122.581 11.5125 125.228 12.6778 125.54L13.5105 125.79L12.6859 126.197C12.2574 126.434 10.8683 126.817 9.57712 127.066C8.31875 127.282 6.59748 127.637 5.77003 127.814C4.94257 127.99 3.48593 128.275 2.52536 128.421C0.803692 128.743 0.145351 129.18 0.157024 130.134C0.163061 130.628 1.489 130.509 4.46663 129.774C6.38576 129.318 9.1991 128.717 11.0863 128.36C11.9141 128.216 12.8075 128.005 13.0718 127.903C13.336 127.8 13.9644 127.626 14.4277 127.52C15.0233 127.38 15.351 127.046 15.4441 126.518C15.6615 125.298 15.6951 125.33 11.3609 123.684C10.894 123.493 10.2604 123.24 9.95974 123.08C9.62594 122.92 9.09348 122.796 8.76169 122.801C8.4299 122.806 8.03015 122.68 7.86264 122.551C7.66156 122.39 6.66137 122.01 5.59603 121.73C4.56347 121.416 3.76275 121.066 3.86068 120.933C4.02295 120.634 6.17352 120.109 11.3049 119.112C15.7412 118.256 16.2693 118.018 16.2556 116.9C16.2475 116.242 15.9789 115.982 15.0119 115.602C14.3115 115.316 13.3109 114.903 12.7441 114.682C12.2104 114.459 11.2106 114.112 10.5774 113.891C9.94416 113.67 8.77728 113.227 8.01014 112.909C7.20942 112.559 6.4431 112.308 6.2772 112.31C6.14449 112.312 5.34458 112.028 4.54426 111.711C1.74276 110.568 1.57687 110.57 1.59056 111.689Z" fill="#2B468B"/>
<path d="M209.684 116.429C208.505 117.762 208.089 118.953 208.114 121.058C208.143 123.393 208.695 125.129 209.806 126.395C210.513 127.24 210.947 127.431 212.208 127.445C213.967 127.485 215.351 126.708 215.866 125.384C216.059 124.888 216.471 123.27 216.784 121.752C217.471 118.254 218.025 117.39 219.485 117.369C220.812 117.349 221.484 118.03 222.004 119.897C222.489 121.535 221.985 123.747 221.031 124.386C220.438 124.757 220.195 126.57 220.759 126.562C221.422 126.552 222.732 125.118 223.117 123.993C223.595 122.407 223.25 118.596 222.471 117.324C221.896 116.445 220.224 115.384 219.361 115.397C219.162 115.399 218.502 115.672 217.875 115.978C216.489 116.624 215.906 117.784 215.411 120.719C214.667 125.007 213.49 126.505 211.489 125.647C210.255 125.139 209.472 123.505 209.445 121.367C209.425 119.657 210.327 117.505 211.057 117.494C211.223 117.491 211.383 117.028 211.377 116.502C211.362 115.252 210.764 115.228 209.684 116.429Z" fill="#2B468B"/>
<path d="M45.5803 229.903C45.3509 230.137 45.1894 230.501 45.1922 230.732C45.1951 230.962 44.8745 231.888 44.52 232.749C43.3254 235.464 43.0033 236.258 42.3291 238.111C41.943 239.104 41.4598 240.295 41.2664 240.759C40.073 243.573 39.9815 244.232 40.8773 244.219C41.5409 244.209 42.2572 243.08 42.9617 240.997L43.2819 240.038L46.8332 240.084C49.5878 240.109 50.4521 240.227 50.656 240.619C50.7919 240.88 51.2345 241.795 51.6431 242.644C52.1541 243.722 52.5914 244.209 53.0228 244.203C53.3545 244.198 53.6507 243.996 53.6479 243.766C53.6439 243.437 50.2897 235.097 48.1723 230.194C47.7973 229.377 46.2686 229.202 45.5803 229.903ZM47.6756 232.998C48.2926 234.601 48.7364 235.614 49.3497 236.921C49.997 238.293 49.5037 238.662 46.949 238.7C45.1242 238.727 44.5589 238.637 44.3878 238.212C44.1139 237.525 46.3296 231.471 46.8604 231.464C46.9931 231.462 47.3666 232.147 47.6756 232.998Z" fill="#2B468B"/>
<path d="M58.6237 230.071C53.879 232.84 54.1803 241.192 59.1189 243.421C62.0887 244.759 66.1613 244.008 67.86 241.811C68.7745 240.613 68.7341 240.021 67.7055 240.037C67.2079 240.044 66.8785 240.246 66.8821 240.542C66.8853 240.806 66.229 241.408 65.4715 241.879C62.803 243.465 59.7757 242.852 58.1197 240.409C57.3761 239.302 57.2361 238.712 57.2132 236.837C57.1649 232.889 58.9624 230.626 62.1807 230.578C64.0719 230.55 64.9717 230.865 66.2134 231.998C67.8913 233.52 69.0744 232.581 67.5281 230.959C66.184 229.597 65.0511 229.219 62.3305 229.26C60.4725 229.287 59.645 229.464 58.6237 230.071Z" fill="#2B468B"/>
<path d="M71.858 229.546C71.7944 229.777 71.8015 233.067 71.881 236.849L72.065 243.756L77.7054 243.672C82.4831 243.601 83.345 243.522 83.3397 243.095C83.3349 242.7 82.537 242.58 78.6867 242.506L74.0397 242.41L73.9071 239.714L73.7746 237.019L78.0202 236.857C81.735 236.703 82.2651 236.629 82.3586 236.134C82.4517 235.607 82.0196 235.547 78.2032 235.538L73.9551 235.503L73.9249 233.036L73.8948 230.568L78.4722 230.402C82.7514 230.272 83.0161 230.203 83.0088 229.611C83.0012 228.986 82.7685 228.956 77.5263 229.034C73.379 229.096 71.9867 229.215 71.858 229.546Z" fill="#2B468B"/>
<path d="M88.317 229.466C87.0007 230.374 86.7089 230.938 86.6959 232.583C86.7244 234.919 87.5624 235.597 91.5895 236.557C95.7501 237.581 96.9914 238.681 96.2204 240.765C95.8663 241.659 94.2478 242.275 92.1576 242.306C89.8682 242.34 88.7018 241.93 87.9581 240.822C87.3505 239.976 86.5194 239.857 86.23 240.618C86.0054 241.246 87.3167 242.641 88.7175 243.213C90.1514 243.784 94.0665 243.725 95.5519 243.078C98.5558 241.783 98.9781 238.323 96.3664 236.42C96.065 236.195 94.4328 235.692 92.735 235.257C88.3082 234.171 87.1312 232.906 88.7676 231.039C89.258 230.439 89.8852 230.167 90.8138 230.12C93.632 229.914 94.3308 230.068 95.339 231.106C95.9443 231.755 96.5119 232.043 96.8421 231.906C97.6675 231.565 97.2209 230.321 95.9832 229.517C95.013 228.873 94.4478 228.783 91.9929 228.853C89.8695 228.884 88.9089 229.03 88.317 229.466Z" fill="#2B468B"/>
<path d="M103.411 229.045C101.763 229.958 101.274 230.722 101.293 232.301C101.324 234.833 102.094 235.315 108.319 236.934C109.717 237.308 110.285 237.628 110.759 238.378C111.301 239.291 111.336 239.455 110.85 240.351C110.17 241.743 109.443 242.05 106.756 242.089C104.566 242.122 104.366 242.059 103.192 240.991C101.95 239.825 101.25 239.605 100.892 240.203C100.567 240.767 102.048 242.455 103.315 242.963C104.816 243.566 108.731 243.508 110.184 242.894C111.999 242.11 112.684 241.113 112.662 239.271C112.645 237.922 112.474 237.53 111.635 236.753C111.098 236.267 109.93 235.693 109.064 235.475C103.939 234.235 102.97 233.723 102.952 232.243C102.938 231.059 104.085 229.956 105.379 229.904C108.198 229.731 109.063 229.915 109.937 230.889C110.913 231.96 111.312 232.053 111.901 231.321C112.26 230.887 112.091 230.627 111.084 229.688C109.842 228.555 109.776 228.556 106.956 228.597C105.363 228.621 103.773 228.842 103.411 229.045Z" fill="#2B468B"/>
<path d="M116.083 228.692C116.018 228.857 115.992 232.147 116.073 236.028C116.19 242.87 116.226 243.1 116.856 243.09C117.487 243.081 117.517 242.817 117.53 235.744C117.509 228.67 117.507 228.44 116.876 228.45C116.511 228.455 116.148 228.559 116.083 228.692Z" fill="#2B468B"/>
<path d="M121.958 228.802C121.894 229.033 121.901 232.323 121.981 236.105L122.165 243.012L125.484 243.061C129.6 243.131 131.386 242.644 132.463 241.214C133.9 239.284 133.374 237.022 131.134 235.64L130.198 235.095L131.182 234.159C133.15 232.288 132.621 229.729 130.088 228.78C128.388 228.147 122.215 228.14 121.958 228.802ZM129.608 230.267C130.245 230.752 130.483 231.241 130.493 232.031C130.515 233.873 129.001 234.85 125.981 234.894C123.924 234.925 123.554 234.503 123.525 232.167C123.512 231.049 123.598 229.995 123.73 229.894C123.828 229.761 125.021 229.645 126.315 229.625C128.239 229.597 128.905 229.719 129.608 230.267ZM130.383 236.671C131.353 237.282 131.806 239.019 131.255 240.08C131.061 240.478 130.37 241.014 129.776 241.286C128.39 241.866 124.608 241.988 124.037 241.438C123.5 240.919 123.45 236.84 124.007 236.273C124.564 235.672 129.247 235.965 130.383 236.671Z" fill="#2B468B"/>
<path d="M136.921 228.547C136.824 228.779 136.832 232.101 136.911 235.884C137.092 242.527 137.129 242.789 137.759 242.78C138.389 242.771 138.42 242.54 138.334 235.534C138.253 228.922 138.212 228.297 137.647 228.207C137.348 228.146 137.018 228.315 136.921 228.547Z" fill="#2B468B"/>
<path d="M142.813 235.467L142.904 242.901L147.482 242.734C151.263 242.579 152.025 242.469 152.02 242.075C152.015 241.68 151.317 241.559 148.362 241.471L144.71 241.361L144.464 234.784C144.218 228.274 144.218 228.208 143.487 228.12L142.722 228.033L142.813 235.467Z" fill="#2B468B"/>
<path d="M155.169 228.276C155.073 228.507 155.08 231.83 155.16 235.613L155.344 242.519L156.173 242.507L157.003 242.494L156.914 235.258L156.825 228.021L156.061 227.933C155.662 227.874 155.266 228.044 155.169 228.276Z" fill="#2B468B"/>
<path d="M160.809 228.126C160.321 228.923 161.219 229.107 164.835 229.054C168.352 229.001 168.618 229.03 168.625 229.622C168.63 229.984 168.502 230.348 168.337 230.449C168.172 230.55 166.963 232.082 165.657 233.845C164.318 235.608 162.555 237.97 161.706 239.102C160.857 240.2 160.142 241.461 160.147 241.855C160.156 242.612 160.156 242.612 165.963 242.526C171.537 242.443 171.769 242.407 171.761 241.782C171.753 241.157 171.521 241.127 167.307 241.19C164.852 241.226 162.76 241.126 162.659 240.996C162.456 240.67 163.857 238.609 167.025 234.45C170.488 229.957 171.334 228.628 171.129 228.105C170.992 227.745 169.995 227.661 165.981 227.721C163.028 227.764 160.939 227.927 160.809 228.126Z" fill="#2B468B"/>
<path d="M178.436 228.588C178.144 229.152 177.919 229.748 177.921 229.912C177.923 230.076 177.537 231.069 177.085 232.096C176.181 234.149 175.73 235.241 175.312 236.366C174.766 237.855 174.444 238.649 173.766 240.173C172.894 242.16 172.93 242.422 173.859 242.409C174.49 242.399 174.784 242.066 175.236 240.973C176.525 237.829 176.063 238.099 179.978 238.041L183.495 237.988L183.904 238.871C184.143 239.394 184.553 240.342 184.859 240.995C185.27 241.976 185.572 242.235 186.235 242.225C186.799 242.216 187.03 242.081 186.927 241.787C186.002 239.465 181.73 229.362 181.355 228.545C180.947 227.729 180.646 227.503 179.883 227.514C179.153 227.525 178.824 227.76 178.436 228.588ZM180.579 230.202C180.582 230.432 181.063 231.774 181.645 233.212C182.226 234.619 182.608 235.995 182.512 236.259C182.383 236.623 181.754 236.698 179.928 236.66C177.505 236.597 177.505 236.597 177.56 235.708C177.588 235.214 178 233.694 178.514 232.305C179.156 230.519 179.579 229.822 180.01 229.815C180.309 229.811 180.577 230.004 180.579 230.202Z" fill="#2B468B"/>
</svg>
