<svg width="67" height="60" viewBox="0 0 67 60" fill="none" xmlns="http://www.w3.org/2000/svg">
<path d="M26.522 0.489276C13.708 2.96301 4.023 11.2088 0.7152 22.4337C0.0894 24.5351 0 25.4128 0 29.7485C0 33.9246 0.0894 35.0152 0.6556 36.957C2.1754 42.2768 4.8872 46.4795 9.387 50.5226C13.8868 54.5391 18.8932 57.199 24.436 58.529C31.9456 60.3112 41.2432 59.4334 48.2164 56.3213C56.322 52.6506 63.2356 44.99 65.5898 37.0634C66.305 34.7226 66.3944 33.898 66.3944 30.0145C66.4242 24.9873 66.007 22.7795 64.3084 19.0024C60.3152 10.0118 51.8222 3.3088 41.3624 0.835067C37.3096 -0.122508 30.4556 -0.282104 26.522 0.489276ZM39.4552 5.14416C48.0972 7.00611 55.6962 12.6984 59.1828 19.9068C61.0006 23.6839 61.388 25.3862 61.388 29.7485C61.3582 32.8873 61.239 34.0044 60.7026 35.76C56.0836 50.9482 38.0248 58.9812 22.201 52.9166C12.3074 49.1128 5.6918 40.7607 5.0064 31.2913C4.0826 18.1246 14.304 6.89971 29.204 4.71857C31.3198 4.42598 37.1904 4.66537 39.4552 5.14416Z" fill="#003554"/>
<path d="M30.2172 9.24045C20.8898 10.3842 13.41 16.1829 10.8174 24.3223C9.8638 27.3014 9.8638 32.1691 10.8174 35.2014C13.4696 43.5004 20.7706 49.0862 30.5152 50.23C39.8128 51.3206 49.7362 46.4795 53.8486 38.8455C56.6498 33.5788 56.918 27.195 54.5638 22.0081C52.3884 17.1937 47.9482 13.0442 42.6438 10.8896C39.336 9.53305 33.823 8.81487 30.2172 9.24045ZM35.015 13.4697C36.5348 14.1347 37.399 15.4381 37.399 17.0873C37.399 18.8162 36.6242 19.96 34.9852 20.7314C32.035 22.0613 28.6378 20.1994 28.6378 17.3001C28.6378 15.6509 29.4722 14.3741 31.0218 13.6027C32.4224 12.8846 33.6144 12.8314 35.015 13.4697ZM25.181 22.5667C30.545 22.9923 43.1802 22.7529 46.19 22.1677C47.3522 21.9549 48.574 22.6997 48.2462 23.4445C47.9184 24.2159 46.8456 24.4287 42.167 24.7213C36.5348 25.0671 36.6242 25.0405 36.207 26.1842C35.4322 28.2324 36.654 35.8664 38.591 41.3192C39.1274 42.7822 39.5744 44.325 39.6042 44.7772C39.634 45.4953 39.5446 45.5751 38.74 45.5751C37.3394 45.5751 36.6242 44.0058 34.5382 36.5846C33.7634 33.7118 32.7204 33.8714 32.035 37.0102C31.5284 39.3775 29.7702 44.4048 29.204 45.0964C28.6378 45.8411 27.118 45.9209 26.8498 45.2825C26.7306 45.0432 27.118 43.2078 27.6842 41.2128C29.4424 35.0684 30.247 31.3711 30.4258 28.5782C30.6642 24.7745 30.9026 24.9341 24.8532 24.6415C19.817 24.3755 18.5654 24.1095 18.3866 23.2849C18.178 22.3539 18.923 21.9815 20.5322 22.1411C21.3666 22.2475 23.4526 22.4337 25.181 22.5667ZM22.5288 27.6472C22.7374 27.993 22.2606 28.7112 20.5322 30.7061C19.3104 32.1425 18.3568 33.4724 18.3866 33.6586C18.4462 33.8182 19.519 35.0684 20.8302 36.3984L23.1546 38.8189L22.4692 39.7233C22.0818 40.2287 21.605 40.6543 21.456 40.6543C21.1878 40.6543 18.5654 38.3667 15.0788 35.0152L13.7676 33.765L15.0788 32.2489C15.794 31.3977 17.433 29.7219 18.7442 28.4984C21.0388 26.3438 21.0984 26.2906 21.6646 26.7428C21.9924 27.0088 22.3798 27.4078 22.5288 27.6472ZM50.2428 30.7859C51.554 32.1691 52.597 33.4724 52.597 33.6852C52.597 34.1374 45.743 40.6543 45.2364 40.6543C45.0576 40.6543 44.6106 40.2287 44.253 39.7233C43.508 38.6327 43.2696 39.0317 46.4284 35.8398C47.531 34.696 48.425 33.7118 48.425 33.632C48.425 33.5522 47.4118 32.3287 46.19 30.9455C44.9682 29.5357 43.955 28.259 43.955 28.0728C43.955 27.9132 44.3126 27.4344 44.7596 27.0354L45.5642 26.2906L46.7264 27.2748C47.382 27.8334 48.9614 29.4027 50.2428 30.7859Z" fill="#003554"/>
</svg>
