<svg width="137" height="128" viewBox="0 0 137 128" fill="none" xmlns="http://www.w3.org/2000/svg">
<path d="M62.5062 1.2795C61.5093 1.40236 61.5093 1.40236 61.5379 2.04026C61.7729 6.14038 61.9481 8.76412 62.0326 9.10948C62.1383 9.54574 62.1383 9.54574 64.5728 9.4035C68.2242 9.17191 69.1012 9.05066 69.0976 8.77716C69.0926 8.41249 68.7929 8.3983 65.9192 8.54646C64.2228 8.62403 63.224 8.60102 63.1826 8.49216C63.1411 8.3833 63.0726 7.74593 63.0431 7.0351L62.966 5.75956L65.4586 5.48888C67.7718 5.23885 68.388 5.02994 68.1031 4.63257C68.0013 4.48805 65.3669 4.61475 63.9123 4.8532C62.9357 4.99402 62.6106 4.57896 62.6723 3.2286L62.7172 2.11555L64.0133 1.97042C64.7311 1.88779 65.9281 1.79871 66.7063 1.75175C67.8439 1.69994 68.1025 1.6235 68.1587 1.34919C68.2149 1.07488 68.0147 1.04111 65.8588 1.10665C64.561 1.12414 63.0645 1.21726 62.5062 1.2795Z" fill="#003554"/>
<path d="M70.9129 1.22086C70.7787 1.64212 70.4754 5.8042 70.4381 7.48249L70.4003 9.12432L73.079 9.32529C75.298 9.49598 75.7772 9.48952 75.9143 9.28707C76.0124 9.15809 76.09 8.99291 76.0893 8.93821C76.0883 8.86527 75.108 8.73259 73.8883 8.62138C72.6886 8.50989 71.6077 8.32386 71.5064 8.2158C71.4051 8.10775 71.3975 7.54251 71.469 6.92149C71.5607 6.31844 71.6591 4.73051 71.721 3.39839C71.8289 1.02615 71.8084 0.989949 71.4091 0.995333C71.1695 0.998562 70.9513 1.11092 70.9129 1.22086Z" fill="#003554"/>
<path d="M48.4554 1.88843C47.9824 2.35073 47.7504 2.9192 47.9525 3.09884C48.1142 3.24256 49.2161 2.02407 49.2316 1.6956C49.227 1.34916 48.8888 1.44491 48.4554 1.88843Z" fill="#003554"/>
<path d="M58.4212 1.93636C58.2269 2.34019 57.3882 6.78305 57.1709 8.44553C57.1169 8.88394 56.9813 9.19579 56.8611 9.16094C56.7408 9.12609 56.2535 8.53084 55.7649 7.84443C55.2964 7.15775 54.8283 6.50753 54.7472 6.41744C54.6658 6.30911 54.2185 5.71333 53.7903 5.06258C53.3422 4.41209 52.9153 3.8525 52.8547 3.79861C52.7741 3.74499 52.6718 3.564 52.5894 3.38274C52.4864 3.14705 52.2858 3.07681 51.9468 3.11785C51.6678 3.15809 51.4294 3.25248 51.4104 3.32569C51.3739 3.58149 56.4171 10.2976 56.718 10.403C57.2396 10.5783 57.9303 9.96718 57.922 9.34724C57.9178 9.03727 57.9908 8.52566 58.0864 8.21434C58.2021 7.90276 58.3522 7.1895 58.4646 6.64088C58.5571 6.09253 58.7622 5.01379 58.9318 4.26379C59.5139 1.52042 59.5139 1.52042 59.0347 1.52688C58.7752 1.53038 58.5378 1.69771 58.4212 1.93636Z" fill="#003554"/>
<path d="M82.6928 2.52109C82.5587 2.94235 81.6418 6.03673 81.4515 6.7323C81.3369 7.11682 81.166 7.77564 81.0519 8.19663C80.938 8.63585 80.7462 9.22201 80.6301 9.49713C80.4183 10.0836 80.4388 10.1198 81.0789 10.2023C81.5389 10.2508 81.5976 10.1589 81.9018 9.02407C82.0921 8.3285 82.3034 7.7056 82.3618 7.59539C82.5183 7.3562 83.5766 7.34194 84.0789 7.57225C84.7223 7.89184 86.8998 7.95367 87.4552 7.67263C88.7444 7.01696 89.2383 5.13191 88.3864 4.1586C87.8389 3.54593 87.1155 3.20918 85.1117 2.70733C83.2681 2.23979 82.8084 2.20951 82.6928 2.52109ZM85.6835 3.64793C86.3446 3.80315 87.0878 4.1214 87.3708 4.3729C87.7953 4.75015 87.8576 4.93168 87.7664 5.5712C87.6387 6.46652 86.9092 7.16936 86.0904 7.16216C85.7909 7.16619 84.9703 7.03136 84.249 6.85872L82.947 6.56624L82.9574 5.85487C82.9843 4.88795 83.3652 3.51506 83.6625 3.34692C83.8013 3.2721 84.0404 3.2324 84.2009 3.28495C84.3611 3.31926 85.0422 3.47421 85.6835 3.64793Z" fill="#003554"/>
<path d="M48.5239 4.00306C48.2466 4.17093 48.2042 3.98914 49.845 8.67212C50.2605 9.87015 50.6357 11.0322 50.6985 11.2502C50.8252 11.7592 51.7649 11.8377 51.7585 11.3636C51.7543 11.0536 51.1702 9.20136 50.5278 7.47752C50.3208 6.93321 49.9472 5.88051 49.6977 5.1544C49.2415 3.90221 49.0389 3.6861 48.5239 4.00306Z" fill="#003554"/>
<path d="M42.5992 5.96126C40.6319 6.68078 39.8282 7.80406 40.3254 9.12864C40.7811 10.3444 41.9626 10.5838 44.9312 10.0696C46.545 9.79251 47.1664 9.9665 47.5574 10.8184C47.9271 11.5793 47.28 12.4634 46.009 12.9912C44.8571 13.4626 43.999 13.5107 43.1952 13.1385C42.1101 12.6425 41.54 13.3067 42.5462 13.8768C43.5324 14.447 46.3018 13.972 47.4873 13.026C48.7519 12.0241 48.9328 10.6357 47.9612 9.664C47.3942 9.08806 47.3543 9.0886 45.7373 9.12864C44.839 9.15898 43.8022 9.28238 43.4244 9.39689C42.8678 9.58677 42.6277 9.55353 41.985 9.28864C41.3826 9.04144 41.2204 8.86126 41.1741 8.38773C41.1078 7.91447 41.2244 7.67582 41.7179 7.24972C42.33 6.73083 43.4824 6.29585 44.2212 6.28589C44.441 6.30117 44.8219 6.40545 45.0832 6.52959C46.028 6.99101 46.5188 6.36434 45.6529 5.82891C45.0487 5.45408 43.8113 5.50724 42.5992 5.96126Z" fill="#003554"/>
<path d="M90.8635 8.66615C88.2604 11.1085 87.67 11.7548 87.9116 11.8974C88.4147 12.1824 88.5934 12.107 89.5003 11.2377C89.9733 10.7754 90.4875 10.4037 90.6073 10.4021C90.7471 10.4002 91.6296 10.6801 92.5729 11.0321C94.4995 11.7356 94.642 11.9343 94.4615 13.3592C94.351 14.0537 94.4129 14.1988 94.7755 14.431C95.0171 14.5736 95.2779 14.6613 95.377 14.6052C95.4561 14.5494 95.5092 12.5609 95.4767 10.1541C95.4143 5.52278 95.4352 5.59545 94.4569 5.60863C94.2572 5.61133 92.6581 6.98241 90.8635 8.66615ZM94.6586 8.72441C94.6849 10.6754 94.6655 10.7121 94.2462 10.7178C93.5072 10.7095 91.5791 9.89661 91.5751 9.60487C91.5707 9.27667 94.27 6.55947 94.4908 6.64768C94.5712 6.68307 94.6436 7.61217 94.6586 8.72441Z" fill="#003554"/>
<path d="M99.309 10.0113C96.1568 14.6859 96.0982 14.7779 96.2816 15.049C96.3834 15.1935 96.565 15.337 96.6853 15.3718C96.9059 15.4418 97.8486 14.2619 98.4134 13.1966C98.5891 12.9024 98.8056 12.6624 98.9254 12.6608C99.0252 12.6594 99.6685 12.979 100.333 13.3713L101.521 14.103L101.547 16.054C101.574 18.0414 101.719 18.4589 102.338 18.4506C102.578 18.4473 102.614 18.1551 102.475 16.7527C102.266 14.5671 102.325 14.4569 103.404 14.5518C104.184 14.6324 104.323 14.5758 105.073 13.9092C105.823 13.2426 105.901 13.0956 105.89 12.2751C105.881 11.6187 105.756 11.2557 105.412 10.9138C104.987 10.4636 102.972 9.14125 102.732 9.14448C102.672 9.14529 102.23 8.89594 101.746 8.61066C101.263 8.30715 100.821 8.07604 100.741 8.07712C100.681 8.07792 100.034 8.94378 99.309 10.0113ZM103.006 10.1803C104.716 11.1238 105.184 11.7375 104.856 12.6173C104.547 13.4239 103.893 13.761 102.813 13.6297C102.332 13.5632 101.872 13.4417 101.81 13.3514C101.749 13.2792 101.206 12.9583 100.603 12.6564C99.9996 12.3545 99.4955 11.9966 99.4938 11.8689C99.4921 11.7413 99.765 11.2452 100.078 10.7669C100.411 10.2882 100.664 9.81064 100.663 9.71948C100.661 9.57361 100.978 9.38697 101.337 9.36389C101.417 9.34458 102.181 9.71726 103.006 10.1803Z" fill="#003554"/>
<path d="M34.3635 9.81081C33.8675 10.0546 33.1753 10.5563 32.8411 10.9438C32.3093 11.498 32.1932 11.7732 32.2026 12.466C32.2257 14.18 33.9107 14.7409 36.4152 13.8682C37.9258 13.3372 39.2837 13.3371 39.6902 13.8605C40.462 14.8167 39.7781 15.9383 37.9717 16.7469C36.9194 17.1987 36.6401 17.2207 35.7177 16.9414C35.1562 16.7666 34.9965 16.7687 34.8597 16.9894C34.2924 17.8724 36.7535 18.2222 38.2813 17.4904C41.0392 16.1584 41.8259 13.777 39.8744 12.7091C39.1502 12.3177 38.651 12.3244 37.0993 12.7648C34.493 13.4929 33.6741 13.4857 33.2048 12.7443C32.776 12.0389 33.2249 11.2669 34.4539 10.5938C35.5445 10.0137 36.1422 9.91449 36.8056 10.2338C37.3683 10.4998 37.9607 9.99939 37.5557 9.58541C37.1502 9.13495 35.4346 9.2675 34.3635 9.81081Z" fill="#003554"/>
<path d="M60.3314 11.7951C60.2922 11.8503 59.7548 11.9852 59.1571 12.0844C54.7543 12.8733 47.8315 14.8632 45.2319 16.0837C43.7635 16.7782 40.0151 18.7071 38.6874 19.4727C38.3108 19.6784 37.8547 19.9217 37.696 19.9967C37.3186 20.1477 33.5406 22.843 32.296 23.8446C30.6365 25.18 25.5885 29.9531 24.5662 31.1523C24.0358 31.7977 23.4848 32.407 23.3867 32.536C23.2684 32.647 23.0524 32.9234 22.8954 33.1262C21.1688 35.4108 20.3659 36.5888 19.898 37.434C19.5859 37.9853 19.2344 38.5736 19.0966 38.7214C18.7818 39.0721 16.4115 43.9733 15.8719 45.4213C15.6404 46.0262 15.2933 46.9427 15.1005 47.456C14.5212 48.9227 13.3622 53.3152 13.0671 55.1246C12.2732 59.9316 12.404 68.1546 13.308 72.9934C13.7154 75.0669 14.4469 77.4826 16.0029 81.802C16.9784 84.5426 20.473 90.4589 22.441 92.7485C22.5421 92.8383 23.1319 93.6327 23.7826 94.4993C25.1043 96.2505 25.2258 96.3765 28.321 99.3256C30.5665 101.466 32.5856 103.098 34.7222 104.564C35.3874 105.03 36.0525 105.477 36.1533 105.548C36.2743 105.638 36.7981 105.977 37.3619 106.316C37.9056 106.655 38.4898 107.03 38.6313 107.156C38.7728 107.282 39.6779 107.762 40.6425 108.205C41.6072 108.666 42.6329 109.199 42.9548 109.377C43.982 110.02 47.2148 111.326 49.22 111.937C50.3226 112.251 51.4057 112.601 51.6266 112.689C52.6505 113.095 58.2384 114.296 59.9382 114.474C60.3181 114.505 61.0987 114.64 61.6393 114.743C62.7404 114.947 77.9731 114.614 78.3892 114.371C78.5081 114.296 79.2453 114.177 80.0031 114.094C82.2169 113.882 83.8295 113.513 87.6681 112.349C89.0403 111.929 90.2329 111.512 90.3315 111.42C90.4501 111.327 90.6887 111.251 90.8884 111.248C91.088 111.245 91.4065 111.168 91.605 111.074C91.7837 110.999 92.6967 110.585 93.63 110.19C94.563 109.776 95.7139 109.232 96.2094 108.951C96.7049 108.671 97.6963 108.147 98.4302 107.772C102.933 105.542 108.23 101.403 112.323 96.9167C113.09 96.0857 113.917 95.1809 114.193 94.9037C114.744 94.3309 115.019 93.9989 116.843 91.4941C117.548 90.4998 118.605 88.8807 119.191 87.8881C119.757 86.9139 120.323 85.9397 120.44 85.7557C120.772 85.2042 122.402 81.6625 122.4 81.4984C122.398 81.4072 122.63 80.8205 122.901 80.1603C123.192 79.5181 123.538 78.5651 123.691 78.0707C124.379 75.7453 124.891 73.7141 124.885 73.313C124.882 73.0577 124.957 72.7102 125.054 72.5265C125.152 72.3611 125.34 71.5197 125.449 70.6611C125.702 68.6881 125.387 54.2123 125.049 52.8856C124.923 52.3766 124.732 51.5585 124.605 51.0679C124.479 50.5589 124.291 49.9597 124.188 49.7057C124.084 49.4518 123.897 48.889 123.751 48.435C123.397 47.3456 122.734 45.5309 122.508 45.078C122.405 44.8788 122.075 44.0626 121.764 43.2643C121.247 41.9035 119.854 39.3145 118.753 37.6515C118.488 37.2539 117.978 36.4401 117.61 35.8432C117.243 35.2464 116.876 34.7224 116.796 34.6688C116.715 34.6152 116.431 34.2543 116.166 33.8567C115.901 33.459 115.616 33.0981 115.536 33.0445C115.475 32.9906 115.049 32.5039 114.622 31.9444C112.408 29.1475 107.734 24.6148 105.921 23.5086C105.68 23.3659 104.429 22.4527 103.158 21.4851C101.383 20.1777 99.9939 19.3393 97.5413 18.1323C93.1586 15.9665 88.58 14.0768 87.7214 14.0884C87.5217 14.0911 87.3009 14.0029 87.2398 13.9125C87.1784 13.8039 86.9378 13.7342 86.7182 13.7372C86.5185 13.7399 86.1781 13.6715 85.9772 13.5831C85.113 13.1753 80.7061 12.1769 78.2248 11.8092C77.0244 11.643 60.5289 11.6283 60.3314 11.7951ZM65.8028 16.2076C65.9862 16.4786 66.2495 28.6026 66.0897 28.6047C66.0298 28.6055 65.0633 28.0167 63.9152 27.2845C61.6792 25.8557 60.3311 25.1079 57.8595 23.9741L56.3123 23.2655L55.819 23.7098C54.9119 24.5609 54.546 27.0461 54.6515 31.9139C54.6771 33.8102 54.6588 35.4153 54.5797 35.471C54.3825 35.6561 48.0341 35.8146 45.2965 35.6874C42.339 35.5449 42.339 35.5449 43.291 33.5807C44.1654 31.7817 46.6895 27.9179 47.9871 26.405C48.9502 25.2614 50.5841 23.5068 51.2349 22.8963C52.3393 21.8601 54.8687 19.8747 55.6811 19.4078C56.0578 19.2021 56.394 18.9605 56.453 18.8868C56.6097 18.6658 60.1614 16.9584 61.6116 16.3917C62.6447 15.9948 63.1825 15.8964 64.2612 15.9183C65.2001 15.9421 65.6805 16.0268 65.8028 16.2076ZM73.9876 15.9878C75.17 16.3001 78.3242 17.6983 80.1953 18.7308C83.4752 20.565 87.5184 24.2126 90.0412 27.6618C92.5026 31.0024 93.9933 33.4443 94.0027 34.1372C94.0135 34.9395 93.4549 34.9835 82.9925 35.1245L73.2289 35.2561L72.5207 34.5727C72.1164 34.2134 71.5692 33.6189 71.3048 33.2578L70.7967 32.6081L70.8034 25.6962C70.8003 18.0551 70.8799 16.5586 71.3328 16.0783C71.707 15.6903 72.745 15.6581 73.9876 15.9878ZM91.7943 19.9422C92.6388 20.3685 93.7441 20.8825 94.2659 21.0761C94.7878 21.2696 95.6121 21.678 96.1154 21.9812C96.6187 22.2845 97.0814 22.5335 97.1613 22.5325C97.2411 22.5314 97.7644 22.8344 98.3287 23.2097C98.8931 23.6033 99.5779 24.0318 99.8397 24.1924C102.014 25.4761 107.591 30.3249 109.579 32.6506C110.675 33.9307 110.779 34.2758 110.204 34.5753C109.649 34.8563 100.903 34.9378 100.34 34.6718C99.6975 34.3887 99.087 33.5398 96.5359 29.4709C96.0257 28.6571 95.0072 27.1754 94.2547 26.1643C92.3634 23.6366 92.282 23.5283 91.4509 22.6094C90.052 21.0599 89.0148 19.6697 89.0099 19.305C89.0057 18.995 89.1051 18.9572 89.6456 19.0594C89.9858 19.1095 90.9498 19.5159 91.7943 19.9422ZM46.8894 20.5293C46.8929 20.7846 45.3051 22.9944 43.3411 25.4464C42.1041 27.0132 39.7189 30.8021 38.434 33.2632C38.2198 33.6673 37.8283 34.2561 37.5732 34.5879C37.3178 34.9013 37.1028 35.2507 37.1041 35.3419C37.1053 35.4331 36.8681 35.6186 36.5706 35.7685C36.174 35.9745 35.0965 36.0437 31.8021 36.0881C26.0916 36.1651 26.0108 36.0932 28.469 33.2699C29.6488 31.9044 33.909 27.9443 35.7467 26.4971C38.1772 24.5859 40.4744 23.1507 44.0446 21.3336C46.1867 20.247 46.8828 20.037 46.8894 20.5293ZM113.816 38.8305C114.178 38.9898 114.662 39.3662 114.866 39.6917C115.864 41.0825 117.464 44.2341 118.21 46.2301C118.665 47.4276 119.1 48.5707 119.163 48.7704C120.237 51.4368 120.703 53.3818 121.086 56.6411C121.38 59.172 121.244 59.4839 119.77 59.7408C119.232 59.821 116.258 59.9341 113.123 59.9581C106.853 60.0244 105.973 59.9268 105.682 59.0736C105.327 57.9295 105.087 56.4373 104.957 54.1959C104.805 51.8272 104.653 50.8991 104.191 49.2458C103.835 47.974 103.623 47.1015 103.259 45.2463C103.066 44.3006 102.586 42.7569 102.194 41.8139C101.802 40.8708 101.471 40 101.469 39.8723C101.462 39.38 102.576 39.055 104.333 39.0313C105.272 39.0186 106.089 38.9164 106.148 38.8245C106.226 38.714 107.643 38.6219 109.719 38.5939C112.495 38.5565 113.294 38.6005 113.816 38.8305ZM34.3542 40.23C34.855 40.3509 35.297 40.5455 35.3387 40.6726C35.3803 40.7997 35.2674 41.3118 35.0948 41.843C33.8644 45.3793 32.6733 51.833 32.2282 57.3283C32.0915 59.0444 31.8088 60.2883 31.476 60.7852C31.1824 61.2268 29.6664 61.3567 23.8564 61.4532L18.146 61.5302L17.7008 61.0985C17.2761 60.703 17.2544 60.5757 17.3016 58.1495C17.3426 56.7448 17.44 55.0839 17.5509 54.4259C17.7364 53.3656 20.2692 45.7085 20.6217 45.1931C20.7001 45.0826 20.8549 44.7158 20.9705 44.4042C21.2789 43.5794 22.727 41.3715 23.2597 40.8901C23.4966 40.6863 24.0122 40.4241 24.3904 40.3278C25.4846 40.0213 33.292 39.9525 34.3542 40.23ZM55.0624 40.1696C55.1457 40.4238 55.1555 41.1532 55.104 41.7739C55.0167 42.7052 54.7073 43.457 53.3253 46.12C51.1838 50.2157 50.5115 52.1943 50.4044 54.6213C50.2966 56.9935 50.6515 58.1377 51.9084 59.5249C52.4149 60.0652 52.8209 60.5521 52.8216 60.6068C52.8241 60.7892 37.9079 60.8991 37.2862 60.7068C36.5844 60.4975 36.4619 60.2985 36.5103 59.4407C36.7249 56.1005 37.004 53.1059 37.1603 52.8485C37.2577 52.6648 37.3307 52.1532 37.3248 51.7156C37.3186 51.2597 37.4128 50.839 37.5119 50.783C37.631 50.7267 37.7064 50.3974 37.7017 50.0509C37.6971 49.7045 37.7708 49.2476 37.8674 49.0092C37.9641 48.7708 38.1329 47.9661 38.2427 47.2169C38.628 44.6951 40.032 40.7005 40.6668 40.3819C41.2816 40.0636 43.6159 39.9045 49.4858 39.8071L54.9362 39.6972L55.0624 40.1696ZM96.4914 39.5017C96.7909 39.4977 97.9284 42.4002 98.5393 44.7628C98.6239 45.1082 98.7493 45.5259 98.8312 45.6707C98.893 45.8158 99.0616 46.47 99.1703 47.1251C99.2989 47.7799 99.4912 48.7074 99.6178 49.2163C99.9151 50.5253 100.222 52.5455 100.473 54.8582C100.587 55.9508 100.743 57.1341 100.827 57.4613C100.976 58.0975 100.615 59.4884 100.239 59.7306C100.14 59.8048 99.8415 59.8818 99.6019 59.885C99.2824 59.8893 99.1609 59.7633 99.0959 59.3812C99.0076 58.7624 98.2869 58.6262 97.8947 59.1603C97.7376 59.3631 97.2626 59.6795 96.8258 59.8678C96.1507 60.1504 95.213 60.2178 90.0224 60.3424L83.9736 60.4969L83.788 60.0617C83.6852 59.8443 83.4934 58.9533 83.3421 58.0982C82.4916 52.7845 80.3939 46.7946 77.8147 42.1243C77.1189 40.8753 76.5656 39.8251 76.6047 39.7698C76.6439 39.7146 93.0162 39.4756 96.4914 39.5017ZM97.9447 59.9074C97.9459 59.9985 97.8473 60.0911 97.7275 60.0927C97.6277 60.094 97.5865 60.0034 97.6452 59.9114C97.7036 59.8012 97.8025 59.7269 97.8624 59.7261C97.9023 59.7256 97.9432 59.798 97.9447 59.9074ZM121.007 64.101C121.309 64.334 121.374 64.6796 121.394 66.1383C121.405 68.436 120.675 73.5521 120.261 73.9407C120.162 74.015 120.105 74.271 120.109 74.5081C120.112 74.7451 120.036 75.0744 119.939 75.2581C119.841 75.4235 119.669 75.9365 119.535 76.3942C118.525 80.0187 117.441 82.5135 115.952 84.6491C114.521 86.6744 114.72 86.617 108.192 86.778L102.602 86.9263L102.529 85.9242C102.456 84.9404 102.643 83.9714 103.147 82.9068C103.4 82.3928 103.815 80.5635 104.204 78.3334C104.277 77.8218 104.446 76.9988 104.539 76.5052C104.893 74.6585 105.11 72.9778 105.279 70.6594C105.684 65.1647 105.854 64.4694 106.85 64.2736C107.089 64.2157 107.468 64.1376 107.687 64.0982C107.906 64.0405 110.9 63.9637 114.354 63.8989C119.944 63.8053 120.664 63.8321 121.007 64.101ZM30.0209 65.4369C30.2413 65.4887 30.6618 65.5742 30.9421 65.6251C31.2423 65.6758 31.5445 65.8723 31.6067 66.0356C31.792 66.4526 32.1592 68.5084 32.384 70.3655C33.0559 75.7728 34.4208 82.2102 35.6874 85.804C36.4555 87.9639 36.3958 87.9829 30.9462 88.1475C25.7958 88.2899 25.0955 88.1899 24.0033 87.1652C23.3358 86.5359 21.3755 83.3344 21.3689 82.8421C21.3674 82.7327 21.2863 82.6426 21.1665 82.6442C21.0667 82.6455 20.9651 82.5193 20.9632 82.3734C20.9612 82.2275 20.8776 81.9551 20.7753 81.7741C20.5503 81.3759 19.9915 79.9245 19.5962 78.7445C19.4296 78.2361 19.2011 77.5826 19.0973 77.2922C17.8899 73.6429 17.1845 70.2057 17.1728 67.8533C17.1864 65.9017 17.1667 65.9202 19.838 65.5742C21.2931 65.3722 29.3199 65.2823 30.0209 65.4369ZM92.9351 64.5706C93.1981 64.8224 92.0685 68.4302 91.2314 70.0281L90.4137 71.5893L89.4945 71.547C88.3554 71.4894 87.4421 71.8847 87.0329 72.6379C86.7403 73.1525 86.5418 73.2463 84.7503 73.6717L84.2526 73.7878L84.2527 69.3563C84.2597 66.9124 84.2716 64.8333 84.3104 64.7416C84.3873 64.5217 92.6928 64.3732 92.9351 64.5706ZM95.9893 64.4747C96.2291 64.4897 96.2099 64.5447 95.9538 64.8035C95.7965 64.9879 95.4459 65.6492 95.1748 66.2729C94.6134 67.5935 93.0064 69.8583 91.6664 71.1894C90.583 72.2982 90.4395 72.0266 91.2979 70.5196C92.0005 69.3065 92.9639 66.7039 93.1478 65.5343C93.2016 65.0776 93.3754 64.6376 93.5142 64.5628C93.7323 64.4504 94.7504 64.4185 95.9893 64.4747ZM100.566 64.723C100.989 64.9727 101.01 65.1 101.04 67.3427C101.059 68.7103 100.993 69.7324 100.874 69.807C100.775 69.863 100.681 70.302 100.687 70.776C100.699 71.633 100.301 74.7386 99.9829 76.293C99.8892 76.7502 99.7215 77.6461 99.5906 78.3044C99.4796 78.9624 99.3103 79.7306 99.2146 80.042C99.1187 80.335 98.8525 81.3234 98.6451 82.238C98.2097 84.0129 96.8906 86.8939 96.4718 86.936C95.4944 87.0221 74.9087 87.2814 74.8478 87.2092C74.7054 87.0106 75.1814 85.2899 75.6084 84.3723C76.2681 82.9409 76.9386 82.3118 78.1723 81.9852C79.8833 81.5062 82.0992 79.9627 84.7612 77.4466C87.0486 75.282 87.2068 75.1705 87.5499 75.4394C89.0237 76.6231 91.5664 75.6223 91.5426 73.8537C91.5371 73.4525 91.4304 72.9433 91.3072 72.6897C91.1021 72.2912 91.1997 72.1258 92.3805 70.8333C93.7578 69.3011 95.3436 66.9454 95.5327 66.1586C95.7023 65.4087 96.451 64.6509 97.2075 64.4765C98.1235 64.2818 99.9826 64.4209 100.566 64.723ZM41.1053 65.5064C41.1058 65.5428 40.5544 66.1156 39.8639 66.745C39.1147 67.4663 38.3491 68.4432 37.8612 69.2886L37.101 70.6666L36.9326 70.0306C36.8481 69.6853 36.7342 68.6473 36.702 67.7359C36.5919 65.4943 36.6316 65.4755 39.1274 65.4418C40.2256 65.427 41.1046 65.4517 41.1053 65.5064ZM60.9347 65.4397C61.7588 65.8298 65.262 67.9345 65.8676 68.4187C66.2713 68.7415 66.4781 69.2676 66.2186 69.2711C66.1587 69.2719 65.5944 68.8965 64.9491 68.4311C64.3238 67.9654 63.0146 67.1441 62.0489 66.61C61.1028 66.0574 60.1371 65.5234 59.9357 65.3984C59.5935 65.2024 59.5933 65.1842 59.9327 65.1796C60.1322 65.1587 60.5731 65.2804 60.9347 65.4397ZM75.5713 74.2149C77.5043 75.3924 79.1159 76.4284 79.1576 76.5555C79.2608 76.8095 78.4023 76.821 76.9815 76.6031C75.6405 76.3841 72.4671 75.0409 71.6189 74.3411C71.0333 73.8566 70.9714 73.7115 70.9576 72.6905L70.9424 71.56L71.5051 71.8259C71.8066 71.9678 73.6386 73.0555 75.5713 74.2149ZM76.2487 80.0233C76.25 80.1144 75.8171 80.5944 75.3048 81.112C73.9651 82.4613 72.9033 83.6975 71.9032 85.0605L71.0407 86.2575L70.9587 84.6173L70.8766 82.9771L71.7256 82.2544C72.4957 81.6058 73.9604 80.6377 74.9521 80.1319C75.4082 79.8887 76.246 79.8227 76.2487 80.0233ZM66.0402 87.1456C65.8259 87.5497 65.5883 87.6988 65.2089 87.7039L64.6898 87.7109L65.2615 87.1561C65.5767 86.8418 65.9329 86.5999 66.0727 86.5981C66.2524 86.5956 66.2544 86.7415 66.0402 87.1456ZM65.703 91.7641C65.9246 91.907 66.1506 92.3781 66.2576 92.9055C66.6228 94.8154 66.5249 109.771 66.1305 110.141C65.8544 110.4 64.1774 110.441 62.9361 110.202C58.5915 109.386 51.8953 104.479 47.5468 98.9206C47.0592 98.3071 46.7124 97.7647 46.7516 97.7094C46.811 97.6721 47.6058 97.3696 48.5402 97.0653C50.8463 96.2865 53.2665 95.0867 57.447 92.6231C58.378 92.0634 58.6965 91.9862 59.9342 91.9512C60.6926 91.9228 61.5502 91.8383 61.8288 91.7616C62.6839 91.4947 65.3002 91.5142 65.703 91.7641ZM93.577 91.443C94.4178 91.5958 94.4782 91.6315 94.4656 92.1787C94.4041 93.5473 91.0977 98.6253 88.4196 101.433C85.2297 104.795 82.2652 107.097 79.1509 108.652C77.0482 109.702 74.0643 110.563 72.427 110.585C71.6084 110.596 71.4679 110.543 71.3831 110.18C71.1924 109.362 70.9927 103.437 71.0751 100.664C71.141 98.1466 71.1968 97.8358 71.4778 97.9414C72.3208 98.2583 72.8394 98.2149 73.133 97.7732C73.4466 97.3313 73.7644 95.7222 73.9543 93.513C74.0246 92.8008 74.1343 92.0516 74.2309 91.8132L74.4052 91.4097L83.5306 91.3414C88.5627 91.31 93.0766 91.3586 93.577 91.443ZM110.647 91.14C110.928 91.2456 111.151 91.4614 111.153 91.5891C111.168 92.7195 105.369 98.1046 100.207 101.785C98.4661 103.03 97.7133 103.478 94.3628 105.292C90.6551 107.275 90.258 107.445 90.0147 107.175C89.731 106.869 89.9459 106.519 91.8517 104.196C93.1878 102.573 93.1094 102.683 95.1084 99.866C97.0287 97.1411 97.8304 95.8719 98.6863 94.1826C100.222 91.0981 100.242 91.0978 105.893 91.0034C108.708 90.9473 110.306 90.9987 110.647 91.14ZM35.7111 93.4814C35.6676 94.7039 35.9373 95.4479 36.585 96.0957C37.1515 96.6352 39.0199 97.4671 40.6433 97.9012C41.6855 98.1789 41.9673 98.3393 42.2335 98.8281C43.0104 100.167 45.8339 103.703 47.4746 105.414C48.2037 106.17 48.231 106.717 47.5522 106.726C46.5139 106.74 41.1447 103.986 38.2016 101.946C35.238 99.8707 29.2963 94.6439 28.4201 93.3426C28.3183 93.1981 28.395 92.96 28.6116 92.7382C28.9267 92.4057 29.186 92.384 32.3612 92.3777L35.7562 92.3866L35.7111 93.4814Z" fill="#003554"/>
<path d="M28.3044 13.6492C27.9879 13.8723 27.6916 14.1134 27.6324 14.1689C27.5735 14.2426 26.7035 14.8926 25.6951 15.6357C24.5681 16.4715 23.8976 17.1006 23.9594 17.2457C24.021 17.3725 25.2786 18.8145 26.7386 20.4544L29.4349 23.4453L30.1271 22.9436C30.5228 22.6647 30.8785 22.3864 30.9376 22.3309C30.9968 22.2754 31.8667 21.6254 32.8749 20.8641C34.5951 19.5825 34.9488 19.1583 34.4861 18.9092C34.3856 18.8559 33.3559 19.508 32.2094 20.3806C31.0631 21.2715 29.9943 21.9789 29.8545 21.9807C29.4951 21.9856 27.9149 20.3109 27.91 19.9462C27.908 19.8003 28.2026 19.4316 28.5783 19.153C29.724 18.2257 30.91 17.3161 31.1875 17.1665C31.5245 16.9796 31.5554 16.3044 31.2359 16.3087C31.0961 16.3106 30.1661 16.9432 29.1578 17.7045C28.1496 18.4658 27.2395 19.0981 27.1597 19.0992C26.9201 19.1024 25.2999 17.4282 25.2765 17.1732C25.274 16.9909 26.6569 15.878 29.4052 13.8349C29.4646 13.7977 29.3628 13.6531 29.2009 13.4912C28.9182 13.2579 28.8186 13.2775 28.3044 13.6492Z" fill="#003554"/>
<path d="M108.338 16.0901C106.75 16.8592 104.905 17.7594 104.231 18.0785C103.179 18.6033 103.021 18.7331 103.205 19.0224C103.47 19.4565 103.69 19.4354 104.959 18.78C106.228 18.1428 106.289 18.1602 108.287 19.7381L109.498 20.7066L109.074 21.843C108.651 23.0158 108.676 23.3802 109.137 23.5199C109.478 23.643 109.594 23.3679 111.074 19.0623L112.361 15.3246L111.918 15.0023C111.676 14.8232 111.414 14.6808 111.334 14.6819C111.274 14.701 109.925 15.321 108.338 16.0901ZM111.132 15.9977C111.136 16.2712 110.423 18.2321 109.996 19.1133L109.686 19.8104L108.476 18.9332C107.81 18.4497 107.264 17.9465 107.263 17.8371C107.261 17.7094 107.954 17.2624 108.787 16.8317C109.62 16.401 110.373 15.9897 110.452 15.9157C110.689 15.7119 111.129 15.7607 111.132 15.9977Z" fill="#003554"/>
<path d="M20.5251 20.2464C18.8018 21.2909 18.0583 22.4316 18.0986 23.9448C18.1361 25.2391 18.5038 25.8542 19.8768 26.9663C21.916 28.6166 23.8338 28.6637 25.7099 27.1065C26.9543 26.0867 27.5309 24.4194 27.0745 23.149C26.9503 22.8224 26.8499 22.7873 26.5324 22.9375C26.2152 23.1059 26.1775 23.2705 26.2849 23.8344C26.4784 24.8531 26.0911 25.7519 25.1428 26.5124C24.4316 27.0873 24.213 27.1632 23.2146 27.1767C22.2762 27.1893 21.9156 27.103 21.1302 26.6212C18.7955 25.2666 18.3472 23.1207 20.0633 21.5475C20.6355 21.0291 20.9333 20.8975 21.8907 20.8116C22.9477 20.7062 23.027 20.6686 23.0214 20.2493C23.016 19.8481 22.9154 19.7948 22.2159 19.7495C21.6164 19.7211 21.1985 19.8362 20.5251 20.2464Z" fill="#003554"/>
<path d="M118.448 20.9142C118.01 21.066 118.175 21.4467 119.006 22.3474C119.452 22.8337 119.818 23.303 119.819 23.4124C119.821 23.5035 119.169 24.0777 118.378 24.6537C117.607 25.2476 116.263 26.2505 115.413 26.8638C114.444 27.5881 113.892 28.1244 113.934 28.3062C114.04 28.7789 114.758 28.7146 115.43 28.1766C117.188 26.7122 120.372 24.4079 120.592 24.405C120.711 24.4034 121.176 24.7983 121.642 25.3027C122.452 26.1489 122.895 26.38 123.13 26.0485C123.189 25.9566 122.234 24.7658 121.017 23.3962C118.442 20.513 118.746 20.819 118.448 20.9142Z" fill="#003554"/>
<path d="M13.1872 28.4789C13.0102 28.6819 12.8539 28.9393 12.8552 29.0305C12.8574 29.1946 16.8657 34.7028 17.1482 34.9178C17.2089 34.9717 17.4327 35.2787 17.6365 35.586C18.0647 36.2368 18.4255 36.3413 18.6191 35.8828C18.7349 35.5894 17.9164 34.1233 17.5141 33.9099C17.1318 33.6962 17.3056 33.2562 18.403 31.7095C19.6183 30.0153 19.4793 30.0719 21.4422 30.5013C21.9026 30.5863 22.2221 30.582 22.3998 30.4337C22.8347 30.0996 22.6705 29.7735 22.0099 29.6548C21.6498 29.6049 20.9891 29.4862 20.5487 29.4009C20.1082 29.3157 18.6666 29.0433 17.3454 28.8058C16.0242 28.5683 14.6228 28.3137 14.2223 28.2279C13.6216 28.1083 13.4623 28.1469 13.1872 28.4789ZM16.5561 29.5095C18.1983 29.8521 18.4995 29.9757 18.3839 30.2873C18.1706 30.7643 16.8567 32.551 16.697 32.5531C16.4973 32.5558 14.0603 29.5431 14.0568 29.2878C14.0539 29.069 14.6339 29.1342 16.5561 29.5095Z" fill="#003554"/>
<path d="M121.989 28.836C119.721 29.4684 118.125 31.04 118.146 32.6446C118.165 33.9939 118.352 34.5385 119.163 35.4758C120.218 36.72 121.223 37.1988 122.6 37.0891C125.433 36.905 127.857 34.5197 127.409 32.3738C127.068 30.7554 125.71 29.2783 124.105 28.7892C123.263 28.527 123.064 28.5297 121.989 28.836ZM124.922 30.0731C125.767 30.5905 126.524 31.8751 126.536 32.8051C126.551 33.8808 125.057 35.6517 124.118 35.6644C123.939 35.6668 123.76 35.7421 123.701 35.8341C123.525 36.0918 122.109 36.2385 121.368 36.0662C120.526 35.8587 119.718 35.1583 119.286 34.2341C118.855 33.3463 118.867 32.7625 119.315 31.9358C120.367 29.9886 123.21 29.0566 124.922 30.0731Z" fill="#003554"/>
<path d="M7.8437 37.9977C7.39061 38.4597 6.61063 39.8562 6.03032 41.25C5.74016 41.947 5.72363 42.2025 5.90505 42.3277C6.2075 42.5425 13.5321 45.1793 13.8117 45.1755C13.9115 45.1741 14.2051 44.7325 14.4376 44.2005C14.6903 43.6865 15.059 42.8973 15.2531 42.4752C15.7579 41.4107 15.7188 39.9888 15.1906 39.3211C14.439 38.3829 12.8393 38.2221 12.0711 39.0167C11.6378 39.4602 11.4581 39.4626 11.2922 39.0089C11.2096 38.8094 10.9244 38.3938 10.641 38.1059C10.2153 37.6374 9.99467 37.5675 9.19601 37.5782C8.47722 37.5879 8.15898 37.6834 7.8437 37.9977ZM9.99068 38.7529C10.5133 39.0012 10.5948 39.1278 10.6039 39.8024C10.6138 40.5317 9.87912 42.3288 9.50271 42.5528C9.42358 42.6085 8.98284 42.5051 8.54112 42.3286C8.0994 42.1522 7.57781 41.9769 7.39713 41.9064C6.85607 41.7678 6.94656 41.0736 7.62843 39.806C8.34949 38.4833 8.88539 38.239 9.99068 38.7529ZM14.3399 39.9162C14.8449 40.347 14.9339 41.0206 14.6053 41.8274C13.8499 43.5701 13.6347 43.9013 13.2753 43.9061C12.7362 43.9134 10.4478 43.0324 10.4448 42.8136C10.4387 42.3578 11.8039 39.9321 12.2195 39.653C12.8133 39.262 13.6936 39.3778 14.3399 39.9162Z" fill="#003554"/>
<path d="M128.788 36.8963C128.291 37.0671 127.178 37.4833 126.304 37.7869C121.852 39.3788 121.832 39.3973 121.836 39.7255C121.839 39.9079 122.211 40.8147 122.662 41.7387C123.587 43.6411 124.376 44.4146 125.799 44.7602C127.121 45.0706 129.29 44.4943 130.514 43.4748C130.968 43.1039 131.648 41.6905 131.641 41.1435C131.627 40.1224 130.324 36.7662 129.903 36.626C129.782 36.5911 129.285 36.7072 128.788 36.8963ZM129.741 37.9959C130.208 38.5367 130.672 40.3724 130.563 41.1945C130.364 42.7108 128.701 43.8092 126.565 43.838C125.607 43.8509 125.406 43.7807 124.699 43.2249C123.892 42.5792 122.951 40.8959 123.083 40.3288C123.12 40.1277 123.754 39.7909 124.828 39.3934C125.762 39.0526 127.093 38.5605 127.808 38.2773C129.298 37.7283 129.478 37.7077 129.741 37.9959Z" fill="#003554"/>
<path d="M4.78238 44.969C4.62781 45.3541 3.50632 49.5636 3.41337 50.0755C3.35716 50.3498 3.42074 50.6225 3.54128 50.6756C3.76263 50.8003 10.5132 52.3324 11.4134 52.4479C12.0139 52.5492 11.936 52.6962 12.7727 49.5846C13.5907 46.5645 13.6267 46.2722 13.1475 46.2787C12.8281 46.283 12.711 46.4852 12.5226 47.3266C12.3907 47.912 12.2002 48.5893 12.1237 48.8457C12.0273 49.1023 11.8562 49.7429 11.7239 50.2918C11.5713 50.8227 11.358 51.2997 11.2389 51.356C11.0997 51.3944 10.4393 51.2939 9.73802 51.121C8.17498 50.7226 8.15403 50.6499 8.79971 48.1792C9.38967 46.0193 9.38893 45.9646 8.9297 45.9708C8.67014 45.9743 8.5136 46.2135 8.34226 46.8359C8.20913 47.3301 7.99908 48.0441 7.88469 48.4469C7.48481 49.893 7.31151 50.3695 7.19269 50.444C6.97478 50.5746 4.89089 50.0556 4.62813 49.8221C4.42601 49.6424 4.49924 49.149 4.93733 47.5748C5.56501 45.2502 5.59806 44.7392 5.17876 44.7448C4.99906 44.7472 4.82084 44.8591 4.78238 44.969Z" fill="#003554"/>
<path d="M129.606 45.73C128.391 46.0017 127.537 46.3232 126.983 46.7137C124.866 48.1829 125.196 51.8805 127.571 53.3075C128.216 53.7 128.536 53.7504 130.013 53.7305C131.85 53.6875 132.606 53.4402 133.651 52.5143C134.717 51.5881 135.054 49.8875 134.513 48.2717C134.222 47.455 133.289 46.3916 132.526 46.0371C131.923 45.7717 130.243 45.5937 129.606 45.73ZM132.279 46.9888C134.228 47.8743 134.487 50.807 132.746 52.0158C130.866 53.2995 128.148 53.1538 127.05 51.6914C125.667 49.8499 126.497 47.705 128.923 46.9064C130.175 46.4883 131.194 46.511 132.279 46.9888Z" fill="#003554"/>
<path d="M2.59611 53.1504C2.60053 53.4786 2.70356 53.7143 2.86329 53.7121C3.00306 53.7102 4.10588 54.0419 5.30977 54.4633C7.19547 55.0944 8.07793 55.3743 9.58058 55.737C10.0216 55.8587 9.74719 56.2454 9.10999 56.3817C8.79126 56.4407 7.91495 56.6166 7.13773 56.7365C6.38072 56.8744 5.34468 57.0525 4.84674 57.1504C4.34905 57.2665 3.59205 57.4044 3.15401 57.5015C2.47663 57.62 2.33834 57.7313 2.30406 58.1512C2.2688 58.4982 2.35112 58.6794 2.61167 58.7489C2.81207 58.8009 3.15322 58.9239 3.37408 59.0121C3.85573 59.188 8.56851 60.6564 9.26979 60.8293L9.77092 60.9684L9.27471 61.194C9.01687 61.3251 8.18098 61.537 7.404 61.6751C6.64675 61.7947 5.61095 61.9911 5.11302 62.089C4.61508 62.1869 3.73853 62.3446 3.16048 62.4253C2.12443 62.6034 1.7283 62.8458 1.73543 63.3746C1.73911 63.6481 2.53704 63.5826 4.32886 63.1755C5.48372 62.9229 7.1767 62.59 8.31233 62.3923C8.81051 62.3127 9.34813 62.196 9.50712 62.1391C9.66612 62.0823 10.0443 61.986 10.323 61.9275C10.6815 61.8498 10.8787 61.6647 10.9346 61.3722C11.0653 60.6957 11.0855 60.7136 8.47709 59.8005C8.19608 59.6948 7.81475 59.5541 7.63383 59.4653C7.43293 59.3769 7.11249 59.3082 6.91282 59.3109C6.71316 59.3136 6.47258 59.2439 6.37176 59.1723C6.25073 59.0828 5.64879 58.8721 5.00765 58.7166C4.38623 58.5426 3.90433 58.3485 3.96324 58.2747C4.06086 58.1093 5.355 57.8183 8.44292 57.266C11.1125 56.7924 11.4303 56.6604 11.4219 56.0405C11.417 55.6758 11.2553 55.5321 10.6733 55.3211C10.2518 55.1626 9.64963 54.9337 9.30848 54.8106C8.9873 54.6873 8.3856 54.4948 8.00451 54.3723C7.62343 54.2498 6.92116 54.0039 6.45947 53.8278C5.97757 53.6337 5.51638 53.494 5.41655 53.4953C5.33668 53.4964 4.85527 53.3388 4.37362 53.1629C2.68758 52.5291 2.58775 52.5304 2.59611 53.1504Z" fill="#003554"/>
<path d="M127.825 55.8026C127.116 56.5416 126.865 57.2015 126.881 58.3684C126.898 59.663 127.231 60.6251 127.899 61.3273C128.325 61.7957 128.586 61.9016 129.345 61.9096C130.403 61.9318 131.236 61.5012 131.546 60.7675C131.662 60.4924 131.91 59.5955 132.098 58.754C132.511 56.8153 132.844 56.3367 133.723 56.3249C134.521 56.3141 134.926 56.6916 135.239 57.7269C135.531 58.6348 135.228 59.8607 134.654 60.215C134.297 60.4204 134.151 61.4254 134.49 61.4208C134.89 61.4154 135.678 60.6206 135.909 59.9975C136.197 59.1182 135.989 57.0055 135.52 56.3006C135.174 55.8129 134.167 55.2247 133.648 55.2317C133.528 55.2333 133.131 55.3845 132.754 55.5537C131.92 55.9115 131.569 56.5545 131.272 58.1816C130.824 60.5584 130.117 61.3886 128.912 60.9124C128.169 60.6307 127.698 59.7252 127.682 58.54C127.669 57.5919 128.212 56.3991 128.651 56.3932C128.751 56.3919 128.848 56.1353 128.844 55.8435C128.834 55.1507 128.475 55.1373 127.825 55.8026Z" fill="#003554"/>
<path d="M29.0812 118.683C28.9432 118.813 28.846 119.014 28.8478 119.142C28.8495 119.27 28.6567 119.783 28.4435 120.26C27.7249 121.765 27.5311 122.205 27.1256 123.232C26.8933 123.782 26.6027 124.443 26.4863 124.7C25.7685 126.26 25.7135 126.625 26.2526 126.618C26.6519 126.612 27.0828 125.986 27.5066 124.832L27.6991 124.3L29.8363 124.326C31.494 124.34 32.0141 124.406 32.1368 124.624C32.2187 124.768 32.4851 125.275 32.7311 125.746C33.0387 126.344 33.302 126.614 33.5615 126.61C33.7612 126.608 33.9394 126.496 33.9377 126.368C33.9352 126.186 31.9159 121.563 30.6411 118.844C30.4153 118.392 29.4954 118.295 29.0812 118.683ZM30.3425 120.399C30.7139 121.287 30.9811 121.849 31.3503 122.573C31.74 123.334 31.4432 123.539 29.9058 123.559C28.8077 123.574 28.4675 123.524 28.3645 123.288C28.1996 122.908 29.5323 119.552 29.8517 119.548C29.9316 119.547 30.1564 119.927 30.3425 120.399Z" fill="#003554"/>
<path d="M36.9307 118.778C34.0757 120.312 34.2579 124.941 37.2302 126.178C39.0175 126.92 41.4682 126.504 42.4903 125.286C43.0405 124.622 43.0161 124.294 42.3971 124.303C42.0976 124.307 41.8995 124.419 41.9017 124.583C41.9036 124.729 41.5087 125.062 41.0529 125.324C39.4472 126.203 37.6253 125.862 36.6285 124.508C36.1809 123.894 36.0966 123.567 36.0826 122.528C36.0531 120.34 37.1346 119.085 39.0713 119.059C40.2094 119.044 40.751 119.219 41.4983 119.847C42.5082 120.69 43.2201 120.17 42.2894 119.271C41.4804 118.516 40.7986 118.306 39.1613 118.328C38.0432 118.343 37.5453 118.441 36.9307 118.778Z" fill="#003554"/>
<path d="M44.895 118.488C44.8567 118.616 44.8614 120.44 44.9096 122.536L45.0211 126.365L48.4154 126.319C51.2906 126.28 51.8092 126.237 51.806 126C51.8031 125.781 51.3229 125.714 49.0058 125.673L46.2093 125.619L46.1292 124.125L46.0492 122.63L48.6041 122.541C50.8396 122.456 51.1586 122.416 51.2148 122.141C51.2708 121.849 51.0107 121.816 48.7141 121.81L46.1576 121.79L46.1392 120.423L46.1208 119.055L48.8754 118.963C51.4506 118.892 51.6098 118.853 51.6054 118.525C51.6007 118.179 51.4607 118.162 48.306 118.205C45.8102 118.239 44.9724 118.305 44.895 118.488Z" fill="#003554"/>
<path d="M54.7996 118.446C54.0076 118.949 53.832 119.261 53.8244 120.173C53.8418 121.468 54.3461 121.844 56.7697 122.377C59.2736 122.945 60.0208 123.555 59.557 124.71C59.344 125.205 58.3701 125.547 57.1122 125.564C55.7345 125.582 55.0325 125.355 54.5849 124.74C54.2191 124.271 53.719 124.205 53.5449 124.627C53.4098 124.975 54.1991 125.749 55.0421 126.066C55.9051 126.382 58.2611 126.35 59.1549 125.992C60.9626 125.275 61.2163 123.356 59.6444 122.302C59.463 122.176 58.4807 121.898 57.459 121.656C54.7948 121.054 54.0864 120.352 55.071 119.318C55.366 118.985 55.7434 118.834 56.3022 118.809C57.9982 118.695 58.4187 118.78 59.0255 119.355C59.3899 119.715 59.7315 119.875 59.9302 119.799C60.4269 119.61 60.158 118.921 59.4131 118.475C58.8291 118.118 58.489 118.068 57.0117 118.106C55.7338 118.123 55.1558 118.204 54.7996 118.446Z" fill="#003554"/>
<path d="M63.8829 118.214C62.8912 118.72 62.5973 119.143 62.6091 120.018C62.6281 121.422 63.091 121.69 66.8375 122.588C67.679 122.795 68.0209 122.973 68.3061 123.388C68.6325 123.895 68.6536 123.986 68.3608 124.482C67.9518 125.253 67.5148 125.423 65.8975 125.445C64.5797 125.463 64.4594 125.428 63.7525 124.836C63.0049 124.189 62.5838 124.067 62.3686 124.398C62.1731 124.711 63.0644 125.647 63.8271 125.929C64.7303 126.263 67.0863 126.232 67.9604 125.891C69.0529 125.457 69.4648 124.905 69.4511 123.884C69.441 123.136 69.3382 122.919 68.8332 122.488C68.51 122.218 67.8068 121.9 67.2859 121.779C64.2012 121.091 63.6183 120.807 63.6072 119.987C63.5984 119.33 64.2891 118.719 65.0675 118.69C66.7637 118.595 67.2843 118.697 67.8108 119.237C68.3979 119.831 68.6383 119.882 68.9923 119.476C69.2087 119.236 69.1069 119.092 68.5008 118.571C67.7534 117.943 67.7135 117.944 66.0163 117.966C65.0579 117.979 64.101 118.102 63.8829 118.214Z" fill="#003554"/>
<path d="M71.5088 118.02C71.4701 118.112 71.4548 119.935 71.5037 122.087C71.5748 125.879 71.5965 126.006 71.9759 126.001C72.3552 125.996 72.3732 125.85 72.3803 121.929C72.3674 118.008 72.3657 117.881 71.9863 117.886C71.7667 117.889 71.5478 117.946 71.5088 118.02Z" fill="#003554"/>
<path d="M75.0443 118.082C75.0061 118.21 75.0107 120.033 75.059 122.13L75.1705 125.958L77.1679 125.986C79.6447 126.026 80.7194 125.756 81.3678 124.963C82.232 123.893 81.9156 122.639 80.5673 121.873L80.004 121.571L80.5961 121.052C81.7803 120.015 81.4617 118.597 79.9369 118.07C78.9136 117.719 75.1991 117.715 75.0443 118.082ZM79.6484 118.895C80.0315 119.163 80.1749 119.435 80.1808 119.872C80.1946 120.894 79.2833 121.435 77.4663 121.459C76.2284 121.476 76.0055 121.242 75.9881 119.947C75.9797 119.327 76.0318 118.743 76.1109 118.687C76.1698 118.613 76.8879 118.549 77.6666 118.539C78.8246 118.523 79.2249 118.591 79.6484 118.895ZM80.1156 122.445C80.6993 122.783 80.9719 123.746 80.6404 124.334C80.5235 124.555 80.1082 124.852 79.7507 125.003C78.9163 125.324 76.6406 125.391 76.297 125.086C75.9736 124.798 75.9431 122.537 76.2784 122.223C76.6134 121.89 79.4314 122.053 80.1156 122.445Z" fill="#003554"/>
<path d="M84.049 117.942C83.9908 118.07 83.9957 119.912 84.0439 122.009C84.1534 125.691 84.1754 125.837 84.5547 125.832C84.9341 125.827 84.9523 125.699 84.9 121.815C84.8506 118.15 84.8259 117.804 84.4858 117.754C84.3056 117.72 84.1071 117.814 84.049 117.942Z" fill="#003554"/>
<path d="M87.5955 121.779L87.651 125.899L90.4057 125.807C92.6811 125.722 93.1396 125.661 93.1367 125.442C93.1337 125.224 92.7134 125.156 90.9354 125.107L88.7379 125.046L88.5889 121.4C88.4404 117.792 88.4399 117.755 87.9999 117.706L87.5399 117.658L87.5955 121.779Z" fill="#003554"/>
<path d="M95.0305 117.794C94.9724 117.922 94.9772 119.764 95.0255 121.861L95.137 125.689L95.6361 125.682L96.1353 125.676L96.0812 121.664L96.0271 117.653L95.5672 117.604C95.3271 117.571 95.0887 117.665 95.0305 117.794Z" fill="#003554"/>
<path d="M98.4244 117.712C98.1308 118.153 98.6713 118.256 100.848 118.226C102.964 118.198 103.124 118.214 103.129 118.542C103.131 118.743 103.054 118.944 102.955 119C102.856 119.056 102.128 119.905 101.343 120.882C100.537 121.86 99.4765 123.169 98.9657 123.796C98.4547 124.404 98.0248 125.103 98.0277 125.322C98.0334 125.741 98.0334 125.741 101.527 125.694C104.882 125.649 105.021 125.629 105.017 125.282C105.012 124.936 104.872 124.92 102.336 124.954C100.859 124.974 99.5999 124.918 99.539 124.846C99.4168 124.665 100.26 123.523 102.166 121.218C104.249 118.727 104.759 117.991 104.635 117.701C104.552 117.502 103.953 117.455 101.537 117.487C99.7597 117.511 98.5028 117.601 98.4244 117.712Z" fill="#003554"/>
<path d="M109.032 117.97C108.856 118.282 108.721 118.612 108.722 118.704C108.724 118.795 108.491 119.345 108.219 119.914C107.676 121.052 107.404 121.658 107.153 122.281C106.825 123.106 106.631 123.546 106.223 124.391C105.699 125.492 105.72 125.638 106.28 125.63C106.659 125.625 106.836 125.44 107.108 124.835C107.883 123.092 107.605 123.241 109.961 123.21L112.078 123.181L112.324 123.67C112.468 123.96 112.714 124.486 112.899 124.848C113.146 125.392 113.328 125.535 113.727 125.53C114.066 125.525 114.205 125.45 114.143 125.287C113.587 124 111.015 118.399 110.789 117.946C110.543 117.494 110.362 117.368 109.903 117.375C109.463 117.381 109.265 117.511 109.032 117.97ZM110.322 118.864C110.324 118.992 110.613 119.736 110.964 120.534C111.314 121.313 111.544 122.076 111.486 122.223C111.409 122.424 111.03 122.466 109.931 122.444C108.473 122.409 108.473 122.409 108.506 121.916C108.522 121.642 108.771 120.8 109.08 120.03C109.466 119.04 109.72 118.654 109.98 118.65C110.159 118.648 110.321 118.755 110.322 118.864Z" fill="#003554"/>
</svg>
